%TF.GenerationSoftware,Novarm,DipTrace,3.3.1.2*%
%TF.CreationDate,2019-03-12T20:56:30+01:00*%
%FSLAX35Y35*%
%MOMM*%
%TF.FileFunction,Legend,Top*%
%TF.Part,Single*%
%ADD10C,0.25*%
%ADD20O,0.39127X0.39172*%
%ADD22O,0.39172X0.39127*%
%ADD24C,0.39137*%
%ADD32O,0.39124X0.39193*%
%ADD68C,0.19608*%
G75*
G01*
%LPD*%
X4963130Y6220213D2*
D10*
Y6350113D1*
X5880277Y5165370D2*
X5750377D1*
X6884017Y5482617D2*
Y5352717D1*
D20*
X4874430Y1917313D3*
X4897800Y2044673D2*
D10*
X5197787D1*
Y2094674D1*
X4897800D1*
Y2044673D1*
D22*
X4332136Y6712436D3*
X4459496Y6689066D2*
D10*
Y6389080D1*
X4509497D1*
Y6689066D1*
X4459496D1*
X4398165Y1624304D2*
Y2284303D1*
X3698168Y1624304D2*
X4398165D1*
X3698168D2*
Y1644282D1*
Y2284303D2*
X4398165D1*
X3698168D2*
Y2264326D1*
D24*
X4690127Y1626674D3*
X4402435Y6876864D2*
D10*
Y7536863D1*
X3702438Y6876864D2*
X4402435D1*
X3702438D2*
Y6896842D1*
Y7536863D2*
X4402435D1*
X3702438D2*
Y7516886D1*
D24*
X4694397Y6879234D3*
X5032517Y2632258D2*
D10*
Y3452309D1*
X5112485D1*
X5032517Y2632258D2*
X5122565D1*
X5992517D2*
Y3452309D1*
X5922533D1*
X5992517Y2632258D2*
X5922533D1*
G36*
X5204261Y2419297D2*
X5324261D1*
Y2509273D1*
X5204261D1*
Y2419297D1*
G37*
G36*
X5454341D2*
X5574341D1*
Y2509273D1*
X5454341D1*
Y2419297D1*
G37*
G36*
X5704325D2*
X5824325D1*
Y2509273D1*
X5704325D1*
Y2419297D1*
G37*
G36*
X3441967Y7959411D2*
X8411967D1*
Y7716627D1*
X3441967D1*
Y7959411D1*
G37*
G36*
Y1209843D2*
X8411967D1*
Y1452627D1*
X3441967D1*
Y1209843D1*
G37*
G36*
X3517014Y4664979D2*
X3597031D1*
Y4504275D1*
X3517014D1*
Y4664979D1*
G37*
G36*
X8336920D2*
X8256903D1*
Y4504275D1*
X8336920D1*
Y4664979D1*
G37*
X7914725Y4893788D2*
D10*
X6094822D1*
X7914725Y4253792D2*
X6094822D1*
Y4893788D2*
Y4253792D1*
X7914725Y4893788D2*
Y4653818D1*
Y4493762D2*
Y4253792D1*
Y4653818D2*
G03X7914725Y4493762I134J-80028D01*
G01*
X6869035Y5825802D2*
X8029098D1*
X6869035Y6465798D2*
X8029098D1*
Y5825802D2*
Y6465798D1*
X6869035Y5825802D2*
Y6065772D1*
Y6225828D2*
Y6465798D1*
Y6065772D2*
G03X6869035Y6225828I16J80028D01*
G01*
X7899785Y3330905D2*
X6739722D1*
X7899785Y2690909D2*
X6739722D1*
Y3330905D2*
Y2690909D1*
X7899785Y3330905D2*
Y3090935D1*
Y2930879D2*
Y2690909D1*
Y3090935D2*
G03X7899785Y2930879I-16J-80028D01*
G01*
X3425000Y7940000D2*
X4925000D1*
X3425000Y7979984D2*
X4925000D1*
X3425000Y7940000D2*
Y8920000D1*
X4925000D1*
Y7940000D1*
X6425000D1*
X4925000Y7979984D2*
X6425000D1*
X4925000Y7940000D2*
Y8920000D1*
X6425000D1*
Y7940000D1*
X8425000Y1230000D2*
X6925000D1*
X8425000Y1190016D2*
X6925000D1*
X8425000Y1230000D2*
Y250000D1*
X6925000D1*
Y1230000D1*
X5425000D1*
X6925000Y1190016D2*
X5425000D1*
X6925000Y1230000D2*
Y250000D1*
X5425000D1*
Y1230000D1*
X6425000Y7940000D2*
X8425000D1*
X6425000Y7979984D2*
X8425000D1*
X6425000Y7940000D2*
Y8920000D1*
X8425000D1*
Y7940000D1*
X5425000Y1230000D2*
X3425000D1*
X5425000Y1190016D2*
X3425000D1*
X5425000Y1230000D2*
Y250000D1*
X3425000D1*
Y1230000D1*
D32*
X5620756Y5921347D3*
X5623396Y5694653D2*
D10*
X4963428D1*
X5623396Y5414654D2*
X4963428D1*
Y5694653D2*
Y5414654D1*
X5623396Y5694653D2*
Y5414654D1*
X5153872Y6515827D2*
D68*
X5147835Y6527900D1*
X5135622Y6540113D1*
X5123549Y6546150D1*
X5099262D1*
X5087049Y6540113D1*
X5074976Y6527900D1*
X5068799Y6515827D1*
X5062762Y6497577D1*
Y6467113D1*
X5068799Y6449004D1*
X5074976Y6436790D1*
X5087049Y6424717D1*
X5099262Y6418540D1*
X5123549D1*
X5135622Y6424717D1*
X5147835Y6436790D1*
X5153872Y6449004D1*
X5193088Y6521723D2*
X5205301Y6527900D1*
X5223551Y6546010D1*
Y6418540D1*
X5972359Y5340798D2*
X5960286Y5334761D1*
X5948072Y5322548D1*
X5942036Y5310475D1*
Y5286188D1*
X5948072Y5273975D1*
X5960286Y5261902D1*
X5972359Y5255725D1*
X5990609Y5249688D1*
X6021072D1*
X6039182Y5255725D1*
X6051395Y5261902D1*
X6063468Y5273975D1*
X6069645Y5286188D1*
Y5310475D1*
X6063469Y5322548D1*
X6051395Y5334761D1*
X6039182Y5340798D1*
X5972499Y5386190D2*
X5966463D1*
X5954249Y5392227D1*
X5948213Y5398264D1*
X5942176Y5410477D1*
Y5434764D1*
X5948213Y5446837D1*
X5954249Y5452873D1*
X5966463Y5459050D1*
X5978536D1*
X5990749Y5452873D1*
X6008859Y5440800D1*
X6069645Y5380013D1*
Y5465086D1*
X6687400Y5648330D2*
X6681364Y5660403D1*
X6669150Y5672617D1*
X6657077Y5678653D1*
X6632791D1*
X6620577Y5672617D1*
X6608504Y5660403D1*
X6602327Y5648330D1*
X6596291Y5630080D1*
Y5599617D1*
X6602327Y5581507D1*
X6608504Y5569294D1*
X6620577Y5557221D1*
X6632791Y5551044D1*
X6657077D1*
X6669150Y5557221D1*
X6681364Y5569294D1*
X6687400Y5581507D1*
X6738830Y5678513D2*
X6805512D1*
X6769153Y5629940D1*
X6787403D1*
X6799476Y5623903D1*
X6805512Y5617867D1*
X6811689Y5599617D1*
Y5587544D1*
X6805512Y5569294D1*
X6793439Y5557080D1*
X6775189Y5551044D1*
X6756939D1*
X6738830Y5557080D1*
X6732793Y5563257D1*
X6726616Y5575330D1*
X5181088Y2302255D2*
Y2174645D1*
X5223625D1*
X5241875Y2180822D1*
X5254088Y2192895D1*
X5260125Y2205109D1*
X5266161Y2223218D1*
Y2253682D1*
X5260125Y2271932D1*
X5254088Y2284005D1*
X5241875Y2296218D1*
X5223625Y2302255D1*
X5181088D1*
X5305377Y2277828D2*
X5317591Y2284005D1*
X5335841Y2302114D1*
Y2174645D1*
X4616596Y6787467D2*
Y6659857D1*
X4659132D1*
X4677382Y6666034D1*
X4689596Y6678107D1*
X4695632Y6690321D1*
X4701669Y6708430D1*
Y6738894D1*
X4695632Y6757144D1*
X4689596Y6769217D1*
X4677382Y6781430D1*
X4659132Y6787467D1*
X4616596D1*
X4747062Y6757004D2*
Y6763040D1*
X4753098Y6775254D1*
X4759135Y6781290D1*
X4771348Y6787327D1*
X4795635D1*
X4807708Y6781290D1*
X4813744Y6775254D1*
X4819921Y6763040D1*
Y6750967D1*
X4813744Y6738754D1*
X4801671Y6720644D1*
X4740885Y6659857D1*
X4825958D1*
X4111234Y2470290D2*
X4099161Y2464394D1*
X4086947Y2452180D1*
X4080911Y2439967D1*
X4074734Y2421717D1*
Y2391394D1*
X4080911Y2373144D1*
X4086947Y2361071D1*
X4099161Y2348857D1*
X4111234Y2342821D1*
X4135520D1*
X4147734Y2348857D1*
X4159807Y2361071D1*
X4165843Y2373144D1*
X4172020Y2391394D1*
Y2421717D1*
X4165843Y2439967D1*
X4159807Y2452180D1*
X4147734Y2464394D1*
X4135520Y2470290D1*
X4111234D1*
X4129484Y2367107D2*
X4165843Y2330607D1*
X4211236Y2445863D2*
X4223450Y2452040D1*
X4241700Y2470150D1*
Y2342680D1*
X4566206Y7280439D2*
X4554133Y7274543D1*
X4541919Y7262330D1*
X4535883Y7250116D1*
X4529706Y7231866D1*
Y7201543D1*
X4535883Y7183293D1*
X4541919Y7171220D1*
X4554133Y7159007D1*
X4566206Y7152970D1*
X4590492D1*
X4602706Y7159007D1*
X4614779Y7171220D1*
X4620815Y7183293D1*
X4626992Y7201543D1*
Y7231866D1*
X4620815Y7250116D1*
X4614779Y7262330D1*
X4602706Y7274543D1*
X4590492Y7280439D1*
X4566206D1*
X4584456Y7177257D2*
X4620815Y7140757D1*
X4672385Y7249976D2*
Y7256012D1*
X4678422Y7268226D1*
X4684458Y7274262D1*
X4696672Y7280299D1*
X4720958D1*
X4733031Y7274262D1*
X4739068Y7268226D1*
X4745245Y7256012D1*
Y7243939D1*
X4739068Y7231726D1*
X4726995Y7213616D1*
X4666208Y7152830D1*
X4751281D1*
X4228734Y2997548D2*
X4283343D1*
X4301593Y3003724D1*
X4307770Y3009761D1*
X4313807Y3021834D1*
Y3034048D1*
X4307770Y3046121D1*
X4301593Y3052298D1*
X4283343Y3058334D1*
X4228734D1*
Y2930724D1*
X4271270Y2997548D2*
X4313807Y2930724D1*
X4353022Y3033907D2*
X4365236Y3040084D1*
X4383486Y3058194D1*
Y2930724D1*
X4334074Y3215687D2*
X4388684D1*
X4406934Y3221864D1*
X4413111Y3227900D1*
X4419147Y3239973D1*
Y3252187D1*
X4413111Y3264260D1*
X4406934Y3270437D1*
X4388684Y3276473D1*
X4334074D1*
Y3148864D1*
X4376611Y3215687D2*
X4419147Y3148864D1*
X4464540Y3246010D2*
Y3252046D1*
X4470577Y3264260D1*
X4476613Y3270296D1*
X4488827Y3276333D1*
X4513113D1*
X4525186Y3270296D1*
X4531223Y3264260D1*
X4537400Y3252046D1*
Y3239973D1*
X4531223Y3227760D1*
X4519150Y3209650D1*
X4458363Y3148864D1*
X4543436D1*
X4326189Y3413490D2*
X4380799D1*
X4399049Y3419667D1*
X4405225Y3425704D1*
X4411262Y3437777D1*
Y3449990D1*
X4405225Y3462063D1*
X4399049Y3468240D1*
X4380799Y3474277D1*
X4326189D1*
Y3346667D1*
X4368725Y3413490D2*
X4411262Y3346667D1*
X4462691Y3474137D2*
X4529374D1*
X4493014Y3425563D1*
X4511264D1*
X4523337Y3419527D1*
X4529374Y3413490D1*
X4535551Y3395240D1*
Y3383167D1*
X4529374Y3364917D1*
X4517301Y3352704D1*
X4499051Y3346667D1*
X4480801D1*
X4462691Y3352704D1*
X4456655Y3358881D1*
X4450478Y3370954D1*
X6359717Y3504888D2*
Y3559497D1*
X6353540Y3577747D1*
X6347503Y3583924D1*
X6335430Y3589961D1*
X6323217D1*
X6311144Y3583924D1*
X6304967Y3577747D1*
X6298930Y3559497D1*
Y3504888D1*
X6426540D1*
X6359717Y3547424D2*
X6426540Y3589961D1*
Y3689963D2*
X6299071D1*
X6384003Y3629176D1*
Y3720286D1*
X8059580Y1570046D2*
Y1624656D1*
X8053403Y1642906D1*
X8047366Y1649083D1*
X8035293Y1655119D1*
X8023080D1*
X8011007Y1649083D1*
X8004830Y1642906D1*
X7998793Y1624656D1*
Y1570046D1*
X8126403D1*
X8059580Y1612583D2*
X8126403Y1655119D1*
X7998934Y1767195D2*
Y1706549D1*
X8053543Y1700512D1*
X8047507Y1706549D1*
X8041330Y1724798D1*
Y1742908D1*
X8047507Y1761158D1*
X8059580Y1773372D1*
X8077830Y1779408D1*
X8089903D1*
X8108153Y1773371D1*
X8120366Y1761158D1*
X8126403Y1742908D1*
Y1724798D1*
X8120366Y1706548D1*
X8114189Y1700512D1*
X8102116Y1694335D1*
X7849000Y1579905D2*
Y1634514D1*
X7842823Y1652764D1*
X7836787Y1658941D1*
X7824714Y1664978D1*
X7812500D1*
X7800427Y1658941D1*
X7794250Y1652764D1*
X7788214Y1634514D1*
X7788213Y1579905D1*
X7915823D1*
X7849000Y1622441D2*
X7915823Y1664977D1*
X7806464Y1777053D2*
X7794391Y1771016D1*
X7788354Y1752766D1*
Y1740693D1*
X7794391Y1722443D1*
X7812641Y1710230D1*
X7842964Y1704193D1*
X7873287D1*
X7897573Y1710230D1*
X7909787Y1722443D1*
X7915823Y1740693D1*
Y1746730D1*
X7909787Y1764839D1*
X7897573Y1777053D1*
X7879323Y1783089D1*
X7873287D1*
X7855037Y1777053D1*
X7842964Y1764839D1*
X7836927Y1746730D1*
Y1740693D1*
X7842964Y1722443D1*
X7855037Y1710230D1*
X7873287Y1704193D1*
X7655026Y1571470D2*
X7655027Y1626079D1*
X7648850Y1644329D1*
X7642813Y1650506D1*
X7630740Y1656543D1*
X7618527D1*
X7606454Y1650506D1*
X7600277Y1644329D1*
X7594240Y1626079D1*
Y1571470D1*
X7721850D1*
X7655027Y1614006D2*
X7721850Y1656543D1*
Y1720045D2*
X7594380Y1780831D1*
Y1695758D1*
X7452967Y1567537D2*
Y1622146D1*
X7446790Y1640396D1*
X7440753Y1646573D1*
X7428680Y1652610D1*
X7416467D1*
X7404394Y1646573D1*
X7398217Y1640396D1*
X7392180Y1622146D1*
Y1567537D1*
X7519790D1*
X7452967Y1610073D2*
X7519790Y1652609D1*
X7392321Y1722148D2*
X7398357Y1704039D1*
X7410430Y1697862D1*
X7422644D1*
X7434717Y1704039D1*
X7440894Y1716112D1*
X7446930Y1740398D1*
X7452967Y1758648D1*
X7465180Y1770721D1*
X7477253Y1776758D1*
X7495503D1*
X7507576Y1770721D1*
X7513753Y1764685D1*
X7519790Y1746435D1*
Y1722148D1*
X7513753Y1704039D1*
X7507576Y1697862D1*
X7495503Y1691825D1*
X7477253D1*
X7465180Y1697862D1*
X7452967Y1710075D1*
X7446930Y1728185D1*
X7440894Y1752471D1*
X7434717Y1764685D1*
X7422644Y1770721D1*
X7410430D1*
X7398357Y1764685D1*
X7392321Y1746435D1*
Y1722148D1*
X7251333Y1568255D2*
Y1622864D1*
X7245157Y1641114D1*
X7239120Y1647291D1*
X7227047Y1653328D1*
X7214833D1*
X7202760Y1647291D1*
X7196583Y1641114D1*
X7190547Y1622864D1*
Y1568255D1*
X7318156D1*
X7251333Y1610791D2*
X7318157Y1653328D1*
X7233083Y1771580D2*
X7251333Y1765403D1*
X7263547Y1753330D1*
X7269583Y1735080D1*
Y1729043D1*
X7263547Y1710793D1*
X7251333Y1698720D1*
X7233083Y1692543D1*
X7227047D1*
X7208797Y1698720D1*
X7196724Y1710793D1*
X7190687Y1729043D1*
Y1735080D1*
X7196724Y1753330D1*
X7208797Y1765403D1*
X7233083Y1771580D1*
X7263547D1*
X7293870Y1765403D1*
X7312120Y1753330D1*
X7318156Y1735080D1*
Y1723007D1*
X7312120Y1704757D1*
X7299907Y1698720D1*
X7054843Y1489765D2*
Y1544374D1*
X7048666Y1562624D1*
X7042630Y1568801D1*
X7030557Y1574838D1*
X7018343D1*
X7006270Y1568801D1*
X7000093Y1562624D1*
X6994057Y1544374D1*
Y1489765D1*
X7121666D1*
X7054843Y1532301D2*
X7121666Y1574838D1*
X7018484Y1614054D2*
X7012307Y1626267D1*
X6994197Y1644517D1*
X7121666D1*
X6994197Y1720233D2*
X7000234Y1701983D1*
X7018484Y1689769D1*
X7048807Y1683733D1*
X7067057D1*
X7097380Y1689769D1*
X7115630Y1701982D1*
X7121666Y1720232D1*
Y1732306D1*
X7115630Y1750556D1*
X7097380Y1762629D1*
X7067057Y1768806D1*
X7048807D1*
X7018484Y1762629D1*
X7000234Y1750556D1*
X6994197Y1732306D1*
Y1720233D1*
X7018484Y1762629D2*
X7097380Y1689769D1*
X6846963Y1535386D2*
X6846964Y1589995D1*
X6840787Y1608245D1*
X6834750Y1614422D1*
X6822677Y1620459D1*
X6810464D1*
X6798391Y1614422D1*
X6792214Y1608245D1*
X6786177Y1589995D1*
Y1535386D1*
X6913787D1*
X6846964Y1577922D2*
X6913787Y1620459D1*
X6810604Y1659674D2*
X6804427Y1671888D1*
X6786317Y1690138D1*
X6913787D1*
X6810604Y1729353D2*
X6804427Y1741567D1*
X6786317Y1759817D1*
X6913787D1*
X6649670Y1479942D2*
Y1534551D1*
X6643493Y1552801D1*
X6637457Y1558978D1*
X6625384Y1565015D1*
X6613170D1*
X6601097Y1558978D1*
X6594920Y1552801D1*
X6588884Y1534551D1*
Y1479942D1*
X6716493D1*
X6649670Y1522478D2*
X6716493Y1565015D1*
X6613311Y1604230D2*
X6607134Y1616444D1*
X6589024Y1634694D1*
X6716493D1*
X6619347Y1680086D2*
X6613311D1*
X6601097Y1686123D1*
X6595061Y1692160D1*
X6589024Y1704373D1*
Y1728660D1*
X6595061Y1740733D1*
X6601097Y1746769D1*
X6613311Y1752946D1*
X6625384D1*
X6637597Y1746769D1*
X6655707Y1734696D1*
X6716493Y1673909D1*
Y1758982D1*
X6681457Y6806723D2*
Y6861332D1*
X6675280Y6879582D1*
X6669243Y6885759D1*
X6657170Y6891796D1*
X6644957D1*
X6632884Y6885759D1*
X6626707Y6879582D1*
X6620670Y6861332D1*
Y6806723D1*
X6748280D1*
X6681457Y6849259D2*
X6748280Y6891795D1*
X6645097Y6931011D2*
X6638920Y6943225D1*
X6620811Y6961475D1*
X6748280D1*
X6620811Y7012904D2*
Y7079586D1*
X6669384Y7043227D1*
Y7061477D1*
X6675420Y7073550D1*
X6681457Y7079586D1*
X6699707Y7085763D1*
X6711780D1*
X6730030Y7079586D1*
X6742243Y7067513D1*
X6748280Y7049263D1*
Y7031013D1*
X6742243Y7012904D1*
X6736066Y7006867D1*
X6723993Y7000690D1*
X6869536Y6810681D2*
Y6865291D1*
X6863359Y6883541D1*
X6857323Y6889718D1*
X6845250Y6895754D1*
X6833036D1*
X6820963Y6889718D1*
X6814786Y6883541D1*
X6808750Y6865291D1*
Y6810681D1*
X6936359D1*
X6869536Y6853218D2*
X6936359Y6895754D1*
X6833177Y6934970D2*
X6827000Y6947184D1*
X6808890Y6965434D1*
X6936359Y6965433D1*
Y7065436D2*
X6808890D1*
X6893823Y7004649D1*
Y7095759D1*
X7068836Y6818023D2*
Y6872633D1*
X7062659Y6890883D1*
X7056623Y6897060D1*
X7044550Y6903096D1*
X7032336D1*
X7020263Y6897060D1*
X7014086Y6890883D1*
X7008050Y6872633D1*
Y6818023D1*
X7135659D1*
X7068836Y6860560D2*
X7135659Y6903096D1*
X7032477Y6942312D2*
X7026300Y6954525D1*
X7008190Y6972775D1*
X7135659D1*
X7008190Y7084851D2*
Y7024204D1*
X7062800Y7018168D1*
X7056763Y7024204D1*
X7050586Y7042454D1*
Y7060564D1*
X7056763Y7078814D1*
X7068836Y7091027D1*
X7087086Y7097064D1*
X7099159D1*
X7117409Y7091027D1*
X7129623Y7078814D1*
X7135659Y7060564D1*
Y7042454D1*
X7129623Y7024204D1*
X7123446Y7018168D1*
X7111373Y7011991D1*
X7277057Y6809621D2*
Y6864231D1*
X7270880Y6882481D1*
X7264843Y6888658D1*
X7252770Y6894694D1*
X7240557D1*
X7228484Y6888658D1*
X7222307Y6882481D1*
X7216270Y6864231D1*
Y6809621D1*
X7343880D1*
X7277057Y6852158D2*
X7343880Y6894694D1*
X7240697Y6933910D2*
X7234520Y6946123D1*
X7216411Y6964373D1*
X7343880D1*
X7234520Y7076448D2*
X7222447Y7070412D1*
X7216411Y7052162D1*
Y7040089D1*
X7222447Y7021839D1*
X7240697Y7009625D1*
X7271020Y7003589D1*
X7301343D1*
X7325630Y7009625D1*
X7337843Y7021839D1*
X7343880Y7040089D1*
Y7046125D1*
X7337843Y7064235D1*
X7325630Y7076448D1*
X7307380Y7082485D1*
X7301343D1*
X7283093Y7076448D1*
X7271020Y7064235D1*
X7264984Y7046125D1*
Y7040089D1*
X7271020Y7021839D1*
X7283093Y7009625D1*
X7301343Y7003589D1*
X7469489Y6811420D2*
X7469490Y6866029D1*
X7463313Y6884279D1*
X7457276Y6890456D1*
X7445203Y6896492D1*
X7432990Y6896493D1*
X7420917Y6890456D1*
X7414740Y6884279D1*
X7408703Y6866029D1*
Y6811420D1*
X7536313D1*
X7469490Y6853956D2*
X7536313Y6896492D1*
X7433130Y6935708D2*
X7426953Y6947922D1*
X7408844Y6966172D1*
X7536313Y6966171D1*
Y7029674D2*
X7408843Y7090460D1*
X7408844Y7005387D1*
X7665019Y6813197D2*
Y6867806D1*
X7658843Y6886056D1*
X7652806Y6892233D1*
X7640733Y6898270D1*
X7628519D1*
X7616446Y6892233D1*
X7610269Y6886056D1*
X7604233Y6867806D1*
Y6813197D1*
X7731842D1*
X7665019Y6855733D2*
X7731843Y6898269D1*
X7628660Y6937485D2*
X7622483Y6949699D1*
X7604373Y6967949D1*
X7731842Y6967948D1*
X7604373Y7037487D2*
X7610410Y7019378D1*
X7622483Y7013201D1*
X7634696D1*
X7646769Y7019378D1*
X7652946Y7031451D1*
X7658983Y7055737D1*
X7665019Y7073987D1*
X7677233Y7086060D1*
X7689306Y7092097D1*
X7707556D1*
X7719629Y7086060D1*
X7725806Y7080024D1*
X7731842Y7061774D1*
Y7037487D1*
X7725806Y7019378D1*
X7719629Y7013201D1*
X7707556Y7007164D1*
X7689306D1*
X7677233Y7013201D1*
X7665019Y7025414D1*
X7658983Y7043524D1*
X7652946Y7067810D1*
X7646769Y7080024D1*
X7634696Y7086060D1*
X7622483D1*
X7610410Y7080024D1*
X7604373Y7061774D1*
Y7037487D1*
X7868473Y6830119D2*
Y6884728D1*
X7862296Y6902978D1*
X7856260Y6909155D1*
X7844186Y6915192D1*
X7831973D1*
X7819900Y6909155D1*
X7813723Y6902978D1*
X7807686Y6884728D1*
Y6830119D1*
X7935296D1*
X7868473Y6872655D2*
X7935296Y6915191D1*
X7832113Y6954407D2*
X7825936Y6966621D1*
X7807827Y6984871D1*
X7935296Y6984870D1*
X7850223Y7103123D2*
X7868473Y7096946D1*
X7880686Y7084873D1*
X7886723Y7066623D1*
Y7060586D1*
X7880686Y7042336D1*
X7868473Y7030263D1*
X7850223Y7024086D1*
X7844186D1*
X7825936Y7030263D1*
X7813863Y7042336D1*
X7807827Y7060586D1*
Y7066623D1*
X7813863Y7084873D1*
X7825936Y7096946D1*
X7850223Y7103123D1*
X7880686D1*
X7911009Y7096946D1*
X7929259Y7084873D1*
X7935296Y7066623D1*
Y7054550D1*
X7929259Y7036300D1*
X7917046Y7030263D1*
X8072133Y6768691D2*
Y6823300D1*
X8065956Y6841550D1*
X8059920Y6847727D1*
X8047847Y6853764D1*
X8035633D1*
X8023560Y6847727D1*
X8017383Y6841550D1*
X8011347Y6823300D1*
X8011346Y6768691D1*
X8138956D1*
X8072133Y6811227D2*
X8138956Y6853763D1*
X8041810Y6899156D2*
X8035774D1*
X8023560Y6905193D1*
X8017524Y6911229D1*
X8011487Y6923443D1*
Y6947729D1*
X8017524Y6959802D1*
X8023560Y6965839D1*
X8035774Y6972016D1*
X8047847D1*
X8060060Y6965839D1*
X8078170Y6953766D1*
X8138956Y6892979D1*
Y6978052D1*
X8011487Y7053768D2*
X8017524Y7035518D1*
X8035774Y7023304D1*
X8066097Y7017268D1*
X8084347D1*
X8114670Y7023304D1*
X8132920Y7035518D1*
X8138956Y7053768D1*
Y7065841D1*
X8132920Y7084091D1*
X8114670Y7096164D1*
X8084347Y7102341D1*
X8066097D1*
X8035774Y7096164D1*
X8017524Y7084091D1*
X8011487Y7065841D1*
Y7053768D1*
X8035774Y7096164D2*
X8114670Y7023304D1*
X5270006Y1568720D2*
X5324615D1*
X5342865Y1574897D1*
X5349042Y1580934D1*
X5355079Y1593007D1*
Y1605220D1*
X5349042Y1617293D1*
X5342865Y1623470D1*
X5324615Y1629507D1*
X5270006D1*
Y1501897D1*
X5312542Y1568720D2*
X5355079Y1501897D1*
X5400471Y1599043D2*
Y1605080D1*
X5406508Y1617293D1*
X5412544Y1623330D1*
X5424758Y1629366D1*
X5449044D1*
X5461117Y1623330D1*
X5467154Y1617293D1*
X5473331Y1605080D1*
Y1593007D1*
X5467154Y1580793D1*
X5455081Y1562684D1*
X5394294Y1501897D1*
X5479367D1*
X5518583Y1605080D2*
X5530797Y1611257D1*
X5549047Y1629366D1*
Y1501897D1*
X3938375Y6484691D2*
X3992985D1*
X4011235Y6490867D1*
X4017412Y6496904D1*
X4023448Y6508977D1*
Y6521191D1*
X4017412Y6533264D1*
X4011235Y6539441D1*
X3992985Y6545477D1*
X3938375D1*
Y6417867D1*
X3980912Y6484691D2*
X4023448Y6417867D1*
X4068841Y6515014D2*
Y6521050D1*
X4074877Y6533264D1*
X4080914Y6539300D1*
X4093127Y6545337D1*
X4117414D1*
X4129487Y6539300D1*
X4135523Y6533264D1*
X4141700Y6521050D1*
Y6508977D1*
X4135523Y6496764D1*
X4123450Y6478654D1*
X4062664Y6417867D1*
X4147737D1*
X4193129Y6515014D2*
Y6521050D1*
X4199166Y6533264D1*
X4205203Y6539300D1*
X4217416Y6545337D1*
X4241703D1*
X4253776Y6539300D1*
X4259812Y6533264D1*
X4265989Y6521050D1*
Y6508977D1*
X4259812Y6496764D1*
X4247739Y6478654D1*
X4186953Y6417867D1*
X4272026D1*
X6135525Y3036778D2*
X6123452Y3048991D1*
X6105202Y3055028D1*
X6080916D1*
X6062666Y3048991D1*
X6050452Y3036778D1*
Y3024705D1*
X6056629Y3012491D1*
X6062666Y3006455D1*
X6074739Y3000418D1*
X6111239Y2988205D1*
X6123452Y2982168D1*
X6129489Y2975991D1*
X6135525Y2963918D1*
Y2945668D1*
X6123452Y2933595D1*
X6105202Y2927418D1*
X6080916D1*
X6062666Y2933595D1*
X6050452Y2945668D1*
X6174741Y3030601D2*
X6186954Y3036778D1*
X6205204Y3054888D1*
Y2927418D1*
X8232802Y7681979D2*
Y7590870D1*
X8238839Y7572620D1*
X8251052Y7560547D1*
X8269302Y7554370D1*
X8281376D1*
X8299626Y7560547D1*
X8311839Y7572620D1*
X8317876Y7590870D1*
Y7681979D1*
X8357091Y7657553D2*
X8369305Y7663729D1*
X8387555Y7681839D1*
Y7554370D1*
X5835064Y4615856D2*
Y4524747D1*
X5841100Y4506497D1*
X5853314Y4494424D1*
X5871564Y4488247D1*
X5883637D1*
X5901887Y4494424D1*
X5914100Y4506497D1*
X5920137Y4524747D1*
Y4615856D1*
X5965529Y4585393D2*
Y4591429D1*
X5971566Y4603643D1*
X5977603Y4609679D1*
X5989816Y4615716D1*
X6014103D1*
X6026176Y4609679D1*
X6032212Y4603643D1*
X6038389Y4591429D1*
Y4579356D1*
X6032212Y4567143D1*
X6020139Y4549033D1*
X5959353Y4488247D1*
X6044426D1*
X6583651Y6193718D2*
Y6102609D1*
X6589688Y6084359D1*
X6601901Y6072285D1*
X6620151Y6066109D1*
X6632224D1*
X6650474Y6072285D1*
X6662688Y6084359D1*
X6668724Y6102609D1*
Y6193718D1*
X6720153Y6193578D2*
X6786836D1*
X6750476Y6145005D1*
X6768726D1*
X6780799Y6138968D1*
X6786836Y6132932D1*
X6793013Y6114682D1*
Y6102609D1*
X6786836Y6084359D1*
X6774763Y6072145D1*
X6756513Y6066109D1*
X6738263D1*
X6720153Y6072145D1*
X6714117Y6078322D1*
X6707940Y6090395D1*
X6456545Y3097060D2*
Y3005951D1*
X6462582Y2987701D1*
X6474795Y2975628D1*
X6493045Y2969451D1*
X6505118D1*
X6523368Y2975628D1*
X6535582Y2987701D1*
X6541618Y3005951D1*
Y3097060D1*
X6641620Y2969451D2*
Y3096920D1*
X6580834Y3011987D1*
X6671943D1*
X4646330Y8835725D2*
Y8744616D1*
X4652367Y8726366D1*
X4664580Y8714293D1*
X4682830Y8708116D1*
X4694903D1*
X4713153Y8714293D1*
X4725367Y8726366D1*
X4731403Y8744616D1*
Y8835725D1*
X4843479Y8835585D2*
X4782832D1*
X4776796Y8780975D1*
X4782832Y8787012D1*
X4801082Y8793189D1*
X4819192D1*
X4837442Y8787012D1*
X4849656Y8774939D1*
X4855692Y8756689D1*
Y8744616D1*
X4849656Y8726366D1*
X4837442Y8714152D1*
X4819192Y8708116D1*
X4801082D1*
X4782832Y8714152D1*
X4776796Y8720329D1*
X4770619Y8732402D1*
X6154878Y8841185D2*
Y8750076D1*
X6160915Y8731826D1*
X6173128Y8719753D1*
X6191378Y8713576D1*
X6203452D1*
X6221702Y8719753D1*
X6233915Y8731826D1*
X6239952Y8750076D1*
Y8841185D1*
X6352027Y8822935D2*
X6345990Y8835008D1*
X6327740Y8841045D1*
X6315667D1*
X6297417Y8835008D1*
X6285204Y8816758D1*
X6279167Y8786435D1*
Y8756112D1*
X6285204Y8731826D1*
X6297417Y8719612D1*
X6315667Y8713576D1*
X6321704D1*
X6339813Y8719612D1*
X6352027Y8731826D1*
X6358063Y8750076D1*
Y8756112D1*
X6352027Y8774362D1*
X6339813Y8786435D1*
X6321704Y8792472D1*
X6315667D1*
X6297417Y8786435D1*
X6285204Y8774362D1*
X6279167Y8756112D1*
X8163853Y431160D2*
Y340050D1*
X8169890Y321800D1*
X8182103Y309727D1*
X8200353Y303550D1*
X8212426D1*
X8230676Y309727D1*
X8242890Y321800D1*
X8248926Y340050D1*
Y431160D1*
X8312428Y303550D2*
X8373215Y431019D1*
X8288142D1*
X6668320Y439953D2*
Y348843D1*
X6674356Y330593D1*
X6686570Y318520D1*
X6704820Y312343D1*
X6716893D1*
X6735143Y318520D1*
X6747356Y330593D1*
X6753393Y348843D1*
Y439953D1*
X6822932Y439813D2*
X6804822Y433776D1*
X6798645Y421703D1*
Y409489D1*
X6804822Y397416D1*
X6816895Y391239D1*
X6841182Y385203D1*
X6859432Y379166D1*
X6871505Y366953D1*
X6877541Y354880D1*
Y336630D1*
X6871505Y324557D1*
X6865468Y318380D1*
X6847218Y312343D1*
X6822932D1*
X6804822Y318380D1*
X6798645Y324557D1*
X6792609Y336630D1*
Y354880D1*
X6798645Y366953D1*
X6810859Y379166D1*
X6828968Y385203D1*
X6853255Y391239D1*
X6865468Y397416D1*
X6871505Y409489D1*
Y421703D1*
X6865468Y433776D1*
X6847218Y439813D1*
X6822932D1*
X8172340Y8852105D2*
Y8760995D1*
X8178376Y8742745D1*
X8190590Y8730672D1*
X8208840Y8724495D1*
X8220913D1*
X8239163Y8730672D1*
X8251376Y8742745D1*
X8257413Y8760995D1*
Y8852105D1*
X8375665Y8809568D2*
X8369488Y8791318D1*
X8357415Y8779105D1*
X8339165Y8773068D1*
X8333128D1*
X8314878Y8779105D1*
X8302805Y8791318D1*
X8296628Y8809568D1*
Y8815605D1*
X8302805Y8833855D1*
X8314878Y8845928D1*
X8333128Y8851965D1*
X8339165D1*
X8357415Y8845928D1*
X8369488Y8833855D1*
X8375665Y8809568D1*
Y8779105D1*
X8369488Y8748782D1*
X8357415Y8730532D1*
X8339165Y8724495D1*
X8327092D1*
X8308842Y8730532D1*
X8302805Y8742745D1*
X5090048Y435556D2*
Y344447D1*
X5096084Y326197D1*
X5108298Y314124D1*
X5126548Y307947D1*
X5138621D1*
X5156871Y314124D1*
X5169084Y326197D1*
X5175121Y344447D1*
Y435556D1*
X5214337Y411129D2*
X5226550Y417306D1*
X5244800Y435416D1*
Y307947D1*
X5320516Y435416D2*
X5302266Y429379D1*
X5290052Y411129D1*
X5284016Y380806D1*
Y362556D1*
X5290052Y332233D1*
X5302266Y313983D1*
X5320516Y307947D1*
X5332589D1*
X5350839Y313983D1*
X5362912Y332233D1*
X5369089Y362556D1*
Y380806D1*
X5362912Y411129D1*
X5350839Y429379D1*
X5332589Y435416D1*
X5320516D1*
X5362912Y411129D2*
X5290052Y332233D1*
X4630097Y5614551D2*
Y5523441D1*
X4636134Y5505191D1*
X4648347Y5493118D1*
X4666597Y5486941D1*
X4678670D1*
X4696920Y5493118D1*
X4709134Y5505191D1*
X4715170Y5523441D1*
Y5614551D1*
X4754386Y5590124D2*
X4766599Y5596301D1*
X4784849Y5614411D1*
Y5486941D1*
X4824065Y5590124D2*
X4836278Y5596301D1*
X4854528Y5614411D1*
Y5486941D1*
X3875447Y3145799D2*
X3747837Y3097226D1*
X3875447Y3048653D1*
X3844984Y3003261D2*
X3851020D1*
X3863234Y2997224D1*
X3869270Y2991188D1*
X3875307Y2978974D1*
Y2954688D1*
X3869270Y2942615D1*
X3863234Y2936578D1*
X3851020Y2930401D1*
X3838947D1*
X3826734Y2936578D1*
X3808624Y2948651D1*
X3747837Y3009438D1*
Y2924365D1*
X5005222Y7419492D2*
Y7528852D1*
X5059832Y7474242D2*
X4950472D1*
X4838397Y7410437D2*
X4899043D1*
X4905080Y7465047D1*
X4899043Y7459010D1*
X4880793Y7452833D1*
X4862683D1*
X4844433Y7459010D1*
X4832220Y7471083D1*
X4826183Y7489333D1*
Y7501406D1*
X4832220Y7519656D1*
X4844434Y7531870D1*
X4862684Y7537906D1*
X4880793D1*
X4899043Y7531870D1*
X4905080Y7525693D1*
X4911257Y7513620D1*
X4612506Y2493714D2*
Y2384355D1*
X4557896Y2438964D2*
X4667256D1*
X4712649Y2472446D2*
Y2478483D1*
X4718685Y2490696D1*
X4724722Y2496733D1*
X4736935Y2502769D1*
X4761222D1*
X4773295Y2496733D1*
X4779331Y2490696D1*
X4785508Y2478483D1*
Y2466410D1*
X4779331Y2454196D1*
X4767258Y2436087D1*
X4706472Y2375300D1*
X4791545D1*
X4891547D2*
Y2502769D1*
X4830760Y2417837D1*
X4921870D1*
M02*
