%TF.GenerationSoftware,Novarm,DipTrace,3.3.1.2*%
%TF.CreationDate,2019-03-12T20:56:31+01:00*%
%FSLAX35Y35*%
%MOMM*%
%TF.FileFunction,Copper,L1,Top*%
%TF.Part,Single*%
%TA.AperFunction,Conductor*%
%ADD13C,0.5*%
%ADD14C,0.8*%
%ADD15C,0.65*%
%ADD16C,0.6*%
%ADD18R,1.3X1.5*%
%ADD19R,1.5X1.3*%
%ADD21R,0.65X1.05*%
%ADD23R,1.05X0.65*%
%ADD25R,2.75X1.0*%
%ADD26R,6.15X5.55*%
%TA.AperFunction,ComponentPad*%
%ADD27R,2.0X2.0*%
%ADD28C,2.0*%
%ADD29O,2.0X1.5*%
%ADD30R,0.6X2.0*%
%TA.AperFunction,ComponentPad*%
%ADD31C,3.0*%
%ADD33R,0.95X2.15*%
%ADD34R,3.25X2.15*%
%TA.AperFunction,ViaPad*%
%ADD35C,1.016*%
G75*
G01*
%LPD*%
X6938753Y3480907D2*
D13*
Y4101270D1*
X6941273Y4103790D1*
X7830273Y5043790D2*
Y5675593D1*
X7830067Y5675800D1*
X6673820Y7392967D2*
D14*
X5682033D1*
X4675000Y8400000D1*
X6873890Y7391950D2*
Y7526897D1*
X6786790Y7613997D1*
X5947477D1*
X5161473Y8400000D1*
X5175000D1*
X7073190Y7392277D2*
Y7590443D1*
X6872713Y7790920D1*
X6284080D1*
X5675000Y8400000D1*
X6850610Y1891110D2*
Y1682623D1*
X6602073Y1434087D1*
X5839087D1*
X5175000Y770000D1*
X6650587Y1890270D2*
Y1752770D1*
X6516277Y1618460D1*
X5523460D1*
X4675000Y770000D1*
X7050300Y1891903D2*
Y1628577D1*
X6686043Y1264320D1*
X6169320D1*
X5675000Y770000D1*
X4599497Y6539080D2*
D15*
X4691997D1*
D14*
X4743610D1*
X4808577Y6604047D1*
Y7091443D1*
X4582487Y7317533D1*
Y7434877D1*
X5068183Y6285163D2*
Y7273597D1*
X4906903Y7434877D1*
X4582487D1*
X5063400Y5844653D2*
Y6280380D1*
X5068183Y6285163D1*
X3904967Y5346627D2*
Y5600627D1*
X5068183Y6285163D2*
X4187663D1*
X3904967Y6002467D1*
Y5600627D1*
X3859340Y6650623D2*
D13*
Y6478619D1*
X5258183Y6285163D2*
X5437425D1*
X5815327Y5460423D2*
Y5601239D1*
X6687273Y5043790D2*
Y5230232D1*
X6588963Y5328542D1*
Y5417667D1*
X6441013D1*
X5815327Y5460423D2*
X5751657D1*
X5523400Y5688680D1*
Y5844653D1*
Y6019947D1*
X5258183Y6285163D1*
X5523400Y5844653D2*
X5632901D1*
X6811753Y3480907D2*
Y3629296D1*
X6771334Y3669716D1*
X7957067Y5675800D2*
Y5471091D1*
X7986962Y5441196D1*
X4647420Y3423587D2*
Y3202513D1*
X4647517Y3202417D1*
Y2968937D1*
X4647280Y2968700D1*
X4508117D1*
X5151483Y1649020D2*
X5227082D1*
X5345603Y1767541D1*
X3904967Y5092627D2*
Y5093261D1*
X4030994Y5219288D1*
X4298401D1*
X4711189Y4806500D1*
X6215247D1*
X6306273Y4897527D1*
Y5043790D1*
X4158967Y5092627D2*
X4241286D1*
X4644977Y4688935D1*
X6264511D1*
X6433273Y4857697D1*
Y5043790D1*
X6560273Y4103790D2*
Y3707943D1*
X6559917Y3707587D1*
X4158967Y4076627D2*
X4382719D1*
X4633808Y4327716D1*
X6505535D1*
X6560273Y4272977D1*
Y4103790D1*
X5293400Y5844653D2*
D14*
Y5264653D1*
X5809557D1*
X5815327Y5270423D1*
X6778963Y5417667D2*
Y5528753D1*
X6671263Y5636453D1*
X6297973D1*
X5931943Y5270423D1*
X5815327D1*
X6814273Y5043790D2*
D16*
Y5183790D1*
D14*
Y5382357D1*
X6778963Y5417667D1*
X5258517Y2661297D2*
X5512517D1*
X5766517D1*
D13*
Y2883847D1*
X5997017Y3114347D1*
Y5086867D2*
X5815327Y5268557D1*
Y5270423D1*
X6559917Y3517587D2*
X6400257D1*
X5997017Y3114347D1*
X6179273Y4103790D2*
Y3970497D1*
X6143133Y3934357D1*
X5769627D1*
X5258567Y3423297D1*
X4837710D1*
X4837420Y3423587D1*
X6306273Y4103790D2*
Y3926817D1*
X6199360Y3819903D1*
X5909123D1*
X5512517Y3423297D1*
Y3396797D1*
X5318137Y3202417D1*
X4837517D1*
X6433273Y4103790D2*
Y3889160D1*
X6241527Y3697413D1*
X6040633D1*
X5766517Y3423297D1*
X4837280Y2968700D2*
X5311920D1*
X5766517Y3423297D1*
X7068273Y4103790D2*
Y3483427D1*
X7065753Y3480907D1*
X7195273Y4103790D2*
Y3483427D1*
X7192753Y3480907D1*
X7322273Y4103790D2*
Y3483427D1*
X7319753Y3480907D1*
X7449273Y4103790D2*
Y3483427D1*
X7446753Y3480907D1*
X7576273Y4103790D2*
Y3483427D1*
X7573753Y3480907D1*
X7703273Y4103790D2*
Y3483427D1*
X7700753Y3480907D1*
X7830273Y4103790D2*
Y3483427D1*
X7827753Y3480907D1*
X7703273Y5043790D2*
Y5675593D1*
X7703067Y5675800D1*
X7576273Y5043790D2*
Y5675593D1*
X7576067Y5675800D1*
X7449273Y5043790D2*
Y5675593D1*
X7449067Y5675800D1*
X7322273Y5043790D2*
Y5675593D1*
X7322067Y5675800D1*
X7195273Y5043790D2*
Y5675593D1*
X7195067Y5675800D1*
X7068273Y5043790D2*
Y5675593D1*
X7068067Y5675800D1*
X6941273Y5043790D2*
Y5675593D1*
X6941067Y5675800D1*
X4578217Y2182317D2*
D14*
X4972927Y2184673D1*
D15*
X5047787D1*
X4578217Y2182317D2*
D14*
Y2267420D1*
X4697247Y2386450D1*
X6484230D1*
X6731123D1*
D16*
X6811753Y2467080D1*
Y2540907D1*
X7957067Y6615800D2*
Y6475800D1*
D14*
Y6417813D1*
X8115973Y6258907D1*
Y3202447D1*
X7945823Y3032297D1*
X6729540D1*
X6484230Y2786987D1*
Y2386450D1*
X7249520Y1891587D2*
Y1548247D1*
X6797650Y1096377D1*
X6501377D1*
X6175000Y770000D1*
X7448423Y1893817D2*
Y1515343D1*
X6703080Y770000D1*
X6675000D1*
X7647753Y1895090D2*
Y1287743D1*
X7130010Y770000D1*
X7175000D1*
X7847187Y1894977D2*
Y942187D1*
X7675000Y770000D1*
X8046847Y1896397D2*
Y898153D1*
X8175000Y770000D1*
X6938753Y2540907D2*
D13*
Y2431613D1*
X6650587Y2143447D1*
Y2080270D1*
X7065753Y2540907D2*
Y2359640D1*
X6850610Y2144497D1*
Y2081110D1*
X7192753Y2540907D2*
Y2302267D1*
X7050300Y2159813D1*
Y2081903D1*
X7319753Y2540907D2*
Y2241243D1*
X7249520Y2171010D1*
Y2081587D1*
X7446753Y2540907D2*
Y2085487D1*
X7448423Y2083817D1*
X7573753Y2540907D2*
Y2234753D1*
X7647753Y2160753D1*
Y2085090D1*
X7700753Y2540907D2*
Y2306727D1*
X7847187Y2160293D1*
Y2084977D1*
X7827753Y2540907D2*
Y2391480D1*
X8046847Y2172387D1*
Y2086397D1*
X7273417Y7392777D2*
D14*
Y7690613D1*
X6993447Y7970583D1*
X6604417D1*
X6175000Y8400000D1*
X7473843Y7393667D2*
Y7823520D1*
X7162200Y8135163D1*
X6939837D1*
X6675000Y8400000D1*
X7673370Y7391377D2*
Y7901630D1*
X7175000Y8400000D1*
X7872827Y7393360D2*
Y8202173D1*
X7675000Y8400000D1*
X8072490Y7394230D2*
Y8297490D1*
X8175000Y8400000D1*
X6941067Y6615800D2*
D13*
Y6827173D1*
X6673820Y7094420D1*
Y7202967D1*
X7068067Y6615800D2*
Y6900797D1*
X6873890Y7094973D1*
Y7201950D1*
X7195067Y6615800D2*
Y6985757D1*
X7073190Y7107633D1*
Y7202277D1*
X7322067Y6615800D2*
Y7154127D1*
X7273417Y7202777D1*
X7449067Y6615800D2*
Y7178890D1*
X7473843Y7203667D1*
X7576067Y6615800D2*
Y7008210D1*
X7673370Y7105513D1*
Y7201377D1*
X7703067Y6615800D2*
Y6916450D1*
X7872827Y7086210D1*
Y7203360D1*
X7830067Y6615800D2*
Y6840563D1*
X8072490Y7082987D1*
Y7204230D1*
X3675000Y770000D2*
D14*
Y1721100D1*
X3908217Y1954317D1*
X3675000Y8400000D2*
Y7444363D1*
X3912487Y7206877D1*
X4578217Y1726317D2*
Y1785333D1*
X4747557Y1954673D1*
X4880287D1*
D15*
X4952787D1*
X4961483Y1649020D2*
D14*
X4655513D1*
X4578217Y1726317D1*
X4369497Y6634080D2*
D15*
X4276997D1*
D14*
X4065883D1*
X4049340Y6650623D1*
X4369497Y6634080D2*
D15*
Y6706580D1*
D14*
Y6915227D1*
X4433147Y6978877D1*
X4582487D1*
D35*
X3859340Y6478619D3*
X5437425Y6285163D3*
X5815327Y5601239D3*
X6441013Y5417667D3*
X5632901Y5844653D3*
X6771334Y3669716D3*
X7986962Y5441196D3*
X4508117Y2968700D3*
X5345603Y1767541D3*
X5997017Y3114347D3*
Y5086867D3*
D18*
X5068183Y6285163D3*
X5258183D3*
D19*
X5815327Y5270423D3*
Y5460423D3*
D18*
X6778963Y5417667D3*
X6588963D3*
D21*
X4952787Y1954673D3*
X5142787D3*
X5047787Y2184673D3*
D23*
X4369497Y6634080D3*
Y6444080D3*
X4599497Y6539080D3*
D25*
X4578217Y1726317D3*
Y2182317D3*
D26*
X3908217Y1954317D3*
D25*
X4582487Y6978877D3*
Y7434877D3*
D26*
X3912487Y7206877D3*
D18*
X4647280Y2968700D3*
X4837280D3*
X4647517Y3202417D3*
X4837517D3*
X4647420Y3423587D3*
X4837420D3*
D19*
X6559917Y3517587D3*
Y3707587D3*
X8046847Y2086397D3*
Y1896397D3*
X7847187Y2084977D3*
Y1894977D3*
X7647753Y2085090D3*
Y1895090D3*
X7448423Y2083817D3*
Y1893817D3*
X7249520Y2081587D3*
Y1891587D3*
X7050300Y2081903D3*
Y1891903D3*
X6850610Y2081110D3*
Y1891110D3*
X6650587Y2080270D3*
Y1890270D3*
X6673820Y7202967D3*
Y7392967D3*
X6873890Y7201950D3*
Y7391950D3*
X7073190Y7202277D3*
Y7392277D3*
X7273417Y7202777D3*
Y7392777D3*
X7473843Y7203667D3*
Y7393667D3*
X7673370Y7201377D3*
Y7391377D3*
X7872827Y7203360D3*
Y7393360D3*
X8072490Y7204230D3*
Y7394230D3*
D18*
X5151483Y1649020D3*
X4961483D3*
X3859340Y6650623D3*
X4049340D3*
D27*
X5258517Y2661297D3*
D28*
X5512517D3*
X5766517D3*
Y3423297D3*
X5512517D3*
X5258567D3*
D29*
X3904967Y5600627D3*
Y5346627D3*
Y5092627D3*
Y4838627D3*
Y4584627D3*
Y4330627D3*
Y4076627D3*
Y3822627D3*
Y3568627D3*
X4158967Y5600627D3*
Y5346627D3*
Y5092627D3*
Y4838627D3*
Y4584627D3*
Y4330627D3*
Y4076627D3*
Y3822627D3*
Y3568627D3*
D30*
X7830273Y5043790D3*
X7703273D3*
X7576273D3*
X7449273D3*
X7322273D3*
X7195273D3*
X7068273D3*
X6941273D3*
X6814273D3*
X6687273D3*
X6560273D3*
X6433273D3*
X6306273D3*
X6179273D3*
Y4103790D3*
X6306273D3*
X6433273D3*
X6560273D3*
X6687273D3*
X6814273D3*
X6941273D3*
X7068273D3*
X7195273D3*
X7322273D3*
X7449273D3*
X7576273D3*
X7703273D3*
X7830273D3*
X6941067Y5675800D3*
X7068067D3*
X7195067D3*
X7322067D3*
X7449067D3*
X7576067D3*
X7703067D3*
X7830067D3*
X7957067D3*
Y6615800D3*
X7830067D3*
X7703067D3*
X7576067D3*
X7449067D3*
X7322067D3*
X7195067D3*
X7068067D3*
X6941067D3*
X7827753Y3480907D3*
X7700753D3*
X7573753D3*
X7446753D3*
X7319753D3*
X7192753D3*
X7065753D3*
X6938753D3*
X6811753D3*
Y2540907D3*
X6938753D3*
X7065753D3*
X7192753D3*
X7319753D3*
X7446753D3*
X7573753D3*
X7700753D3*
X7827753D3*
D31*
X3675000Y8400000D3*
X4175000D3*
X4675000D3*
X5175000D3*
X5675000D3*
X6175000D3*
X8175000Y770000D3*
X7675000D3*
X7175000D3*
X6675000D3*
X6175000D3*
X5675000D3*
X6675000Y8400000D3*
X7175000D3*
X7675000D3*
X8175000D3*
X5175000Y770000D3*
X4675000D3*
X4175000D3*
X3675000D3*
D33*
X5523400Y5844653D3*
X5293400D3*
X5063400D3*
D34*
X5293400Y5264653D3*
M02*
