%TF.GenerationSoftware,Novarm,DipTrace,3.3.1.2*%
%TF.CreationDate,2019-03-12T20:56:30+01:00*%
%FSLAX35Y35*%
%MOMM*%
%TF.FileFunction,Soldermask,Top*%
%TF.Part,Single*%
%ADD42R,3.45X2.35*%
%ADD44R,1.15X2.35*%
%ADD46C,3.2*%
%ADD48R,0.8X2.2*%
%ADD50O,2.2X1.7*%
%ADD52C,2.2*%
%ADD54R,2.2X2.2*%
%ADD56R,6.35X5.75*%
%ADD58R,2.95X1.2*%
%ADD60R,1.25X0.85*%
%ADD62R,0.85X1.25*%
%ADD64R,1.7X1.5*%
%ADD66R,1.5X1.7*%
G75*
G01*
%LPD*%
D66*
X5068183Y6285163D3*
X5258183D3*
D64*
X5815327Y5270423D3*
Y5460423D3*
D66*
X6778963Y5417667D3*
X6588963D3*
D62*
X4952787Y1954673D3*
X5142787D3*
X5047787Y2184673D3*
D60*
X4369497Y6634080D3*
Y6444080D3*
X4599497Y6539080D3*
D58*
X4578217Y1726317D3*
Y2182317D3*
D56*
X3908217Y1954317D3*
D58*
X4582487Y6978877D3*
Y7434877D3*
D56*
X3912487Y7206877D3*
D66*
X4647280Y2968700D3*
X4837280D3*
X4647517Y3202417D3*
X4837517D3*
X4647420Y3423587D3*
X4837420D3*
D64*
X6559917Y3517587D3*
Y3707587D3*
X8046847Y2086397D3*
Y1896397D3*
X7847187Y2084977D3*
Y1894977D3*
X7647753Y2085090D3*
Y1895090D3*
X7448423Y2083817D3*
Y1893817D3*
X7249520Y2081587D3*
Y1891587D3*
X7050300Y2081903D3*
Y1891903D3*
X6850610Y2081110D3*
Y1891110D3*
X6650587Y2080270D3*
Y1890270D3*
X6673820Y7202967D3*
Y7392967D3*
X6873890Y7201950D3*
Y7391950D3*
X7073190Y7202277D3*
Y7392277D3*
X7273417Y7202777D3*
Y7392777D3*
X7473843Y7203667D3*
Y7393667D3*
X7673370Y7201377D3*
Y7391377D3*
X7872827Y7203360D3*
Y7393360D3*
X8072490Y7204230D3*
Y7394230D3*
D66*
X5151483Y1649020D3*
X4961483D3*
X3859340Y6650623D3*
X4049340D3*
D54*
X5258517Y2661297D3*
D52*
X5512517D3*
X5766517D3*
Y3423297D3*
X5512517D3*
X5258567D3*
D50*
X3904967Y5600627D3*
Y5346627D3*
Y5092627D3*
Y4838627D3*
Y4584627D3*
Y4330627D3*
Y4076627D3*
Y3822627D3*
Y3568627D3*
X4158967Y5600627D3*
Y5346627D3*
Y5092627D3*
Y4838627D3*
Y4584627D3*
Y4330627D3*
Y4076627D3*
Y3822627D3*
Y3568627D3*
D48*
X7830273Y5043790D3*
X7703273D3*
X7576273D3*
X7449273D3*
X7322273D3*
X7195273D3*
X7068273D3*
X6941273D3*
X6814273D3*
X6687273D3*
X6560273D3*
X6433273D3*
X6306273D3*
X6179273D3*
Y4103790D3*
X6306273D3*
X6433273D3*
X6560273D3*
X6687273D3*
X6814273D3*
X6941273D3*
X7068273D3*
X7195273D3*
X7322273D3*
X7449273D3*
X7576273D3*
X7703273D3*
X7830273D3*
X6941067Y5675800D3*
X7068067D3*
X7195067D3*
X7322067D3*
X7449067D3*
X7576067D3*
X7703067D3*
X7830067D3*
X7957067D3*
Y6615800D3*
X7830067D3*
X7703067D3*
X7576067D3*
X7449067D3*
X7322067D3*
X7195067D3*
X7068067D3*
X6941067D3*
X7827753Y3480907D3*
X7700753D3*
X7573753D3*
X7446753D3*
X7319753D3*
X7192753D3*
X7065753D3*
X6938753D3*
X6811753D3*
Y2540907D3*
X6938753D3*
X7065753D3*
X7192753D3*
X7319753D3*
X7446753D3*
X7573753D3*
X7700753D3*
X7827753D3*
D46*
X3675000Y8400000D3*
X4175000D3*
X4675000D3*
X5175000D3*
X5675000D3*
X6175000D3*
X8175000Y770000D3*
X7675000D3*
X7175000D3*
X6675000D3*
X6175000D3*
X5675000D3*
X6675000Y8400000D3*
X7175000D3*
X7675000D3*
X8175000D3*
X5175000Y770000D3*
X4675000D3*
X4175000D3*
X3675000D3*
D44*
X5523400Y5844653D3*
X5293400D3*
X5063400D3*
D42*
X5293400Y5264653D3*
M02*
