M48
METRIC,0000.00
T01C0.486
T02C1.0
T03C1.3
%
T01
X+003859Y+006479
X+005437Y+006285
X+005633Y+005845
X+005815Y+005601
X+005997Y+005087
X+006441Y+005418
X+007987Y+005441
X+006771Y+003670
X+005997Y+003114
X+004508Y+002969
X+005346Y+001768
T02
X+005259Y+002661
X+005513Y+002661
X+005767Y+002661
X+005767Y+003423
X+005513Y+003423
X+005259Y+003423
X+004159Y+003569
X+004159Y+003823
X+004159Y+004077
X+003905Y+004077
X+003905Y+003823
X+003905Y+003569
X+003905Y+004331
X+003905Y+004585
X+003905Y+004839
X+004159Y+004839
X+004159Y+004585
X+004159Y+004331
X+004159Y+005093
X+004159Y+005347
X+004159Y+005601
X+003905Y+005601
X+003905Y+005347
X+003905Y+005093
T03
X+003675Y+008400
X+004175Y+008400
X+004675Y+008400
X+005175Y+008400
X+005675Y+008400
X+006175Y+008400
X+006675Y+008400
X+007175Y+008400
X+007675Y+008400
X+008175Y+008400
X+008175Y+000770
X+007675Y+000770
X+007175Y+000770
X+006675Y+000770
X+006175Y+000770
X+005675Y+000770
X+005175Y+000770
X+004675Y+000770
X+004175Y+000770
X+003675Y+000770
T00
M30
