%TF.GenerationSoftware,Novarm,DipTrace,3.2.0.1*%
%TF.CreationDate,2018-11-20T20:13:34+01:00*%
%FSLAX35Y35*%
%MOMM*%
%TF.FileFunction,Legend,Bot*%
%TF.Part,Single*%
%ADD54C,0.19608*%
G75*
G01*
%LPD*%
X7397814Y10173657D2*
D54*
Y10046047D1*
X7343064D1*
X7324814Y10052224D1*
X7318778Y10058261D1*
X7312741Y10070334D1*
Y10088584D1*
X7318778Y10100797D1*
X7324814Y10106834D1*
X7343064Y10112870D1*
X7324814Y10119047D1*
X7318778Y10125084D1*
X7312741Y10137157D1*
Y10149370D1*
X7318778Y10161444D1*
X7324814Y10167620D1*
X7343064Y10173657D1*
X7397814D1*
Y10112870D2*
X7343064D1*
X7182416Y10143334D2*
X7188453Y10155407D1*
X7200666Y10167620D1*
X7212739Y10173657D1*
X7237026D1*
X7249239Y10167620D1*
X7261312Y10155407D1*
X7267489Y10143334D1*
X7273526Y10125084D1*
Y10094620D1*
X7267489Y10076511D1*
X7261312Y10064297D1*
X7249239Y10052224D1*
X7237026Y10046047D1*
X7212739D1*
X7200666Y10052224D1*
X7188453Y10064297D1*
X7182416Y10076511D1*
X7052091Y10143334D2*
X7058127Y10155407D1*
X7070341Y10167620D1*
X7082414Y10173657D1*
X7106700D1*
X7118914Y10167620D1*
X7130987Y10155407D1*
X7137164Y10143334D1*
X7143200Y10125084D1*
Y10094620D1*
X7137164Y10076511D1*
X7130987Y10064297D1*
X7118914Y10052224D1*
X7106700Y10046047D1*
X7082414D1*
X7070341Y10052224D1*
X7058127Y10064297D1*
X7052091Y10076511D1*
X7012875Y10024990D2*
X6897479D1*
X6858263Y10112870D2*
X6803654D1*
X6785404Y10119047D1*
X6779227Y10125084D1*
X6773190Y10137157D1*
Y10149370D1*
X6779227Y10161444D1*
X6785404Y10167620D1*
X6803654Y10173657D1*
X6858263D1*
Y10046047D1*
X6815727Y10112870D2*
X6773190Y10046047D1*
X6733974Y10094620D2*
X6661115D1*
Y10106834D1*
X6667151Y10119047D1*
X6673188Y10125084D1*
X6685401Y10131120D1*
X6703651D1*
X6715724Y10125084D1*
X6727938Y10112870D1*
X6733974Y10094620D1*
Y10082547D1*
X6727938Y10064297D1*
X6715724Y10052224D1*
X6703651Y10046047D1*
X6685401D1*
X6673188Y10052224D1*
X6661115Y10064297D1*
X6621899Y10173657D2*
Y10046047D1*
X6509824Y10131120D2*
Y10046047D1*
Y10112870D2*
X6521897Y10125084D1*
X6534110Y10131120D1*
X6552220D1*
X6564433Y10125084D1*
X6576506Y10112870D1*
X6582683Y10094620D1*
Y10082547D1*
X6576506Y10064297D1*
X6564433Y10052224D1*
X6552220Y10046047D1*
X6534110D1*
X6521897Y10052224D1*
X6509824Y10064297D1*
X6464431Y10131120D2*
X6428072Y10046047D1*
X6440145Y10021761D1*
X6452358Y10009547D1*
X6464431Y10003511D1*
X6470608D1*
X6391572Y10131120D2*
X6428072Y10046047D1*
X6247933Y10183065D2*
X6199360Y10055455D1*
X6150787Y10183065D1*
X6111572Y10158638D2*
X6099358Y10164815D1*
X6081108Y10182925D1*
Y10055455D1*
X7390299Y9840039D2*
X7335690D1*
X7317440Y9846216D1*
X7311263Y9852252D1*
X7305226Y9864326D1*
Y9876539D1*
X7311263Y9888612D1*
X7317440Y9894789D1*
X7335690Y9900826D1*
X7390299D1*
Y9773216D1*
X7347763Y9840039D2*
X7305226Y9773216D1*
X7266010Y9900826D2*
X7259974Y9894789D1*
X7253797Y9900826D1*
X7259974Y9907002D1*
X7266010Y9900826D1*
X7259974Y9858289D2*
Y9773216D1*
X7214581Y9858289D2*
Y9773216D1*
Y9834002D2*
X7196331Y9852252D1*
X7184118Y9858289D1*
X7166008D1*
X7153795Y9852252D1*
X7147758Y9834002D1*
Y9773216D1*
Y9834002D2*
X7129508Y9852252D1*
X7117295Y9858289D1*
X7099185D1*
X7086972Y9852252D1*
X7080795Y9834002D1*
Y9773216D1*
X7041579Y9858289D2*
X7005079Y9773216D1*
X6968719Y9858289D1*
X6923327D2*
X6886967Y9773216D1*
X6899040Y9748929D1*
X6911254Y9736716D1*
X6923327Y9730679D1*
X6929504D1*
X6850467Y9858289D2*
X6886967Y9773216D1*
X6738392Y9900826D2*
Y9773216D1*
Y9840039D2*
X6750465Y9852252D1*
X6762678Y9858289D1*
X6780928D1*
X6793002Y9852252D1*
X6805215Y9840039D1*
X6811252Y9821789D1*
Y9809716D1*
X6805215Y9791466D1*
X6793002Y9779393D1*
X6780928Y9773216D1*
X6762678D1*
X6750465Y9779393D1*
X6738392Y9791466D1*
X6626317Y9858289D2*
Y9773216D1*
Y9840039D2*
X6638390Y9852252D1*
X6650603Y9858289D1*
X6668713D1*
X6680926Y9852252D1*
X6692999Y9840039D1*
X6699176Y9821789D1*
Y9809716D1*
X6692999Y9791466D1*
X6680926Y9779393D1*
X6668713Y9773216D1*
X6650603D1*
X6638390Y9779393D1*
X6626317Y9791466D1*
X6520278Y9840039D2*
X6526314Y9852252D1*
X6544564Y9858289D1*
X6562814D1*
X6581064Y9852252D1*
X6587101Y9840039D1*
X6581064Y9827966D1*
X6568851Y9821789D1*
X6538528Y9815752D1*
X6526314Y9809716D1*
X6520278Y9797502D1*
Y9791466D1*
X6526314Y9779393D1*
X6544564Y9773216D1*
X6562814D1*
X6581064Y9779393D1*
X6587101Y9791466D1*
X6351439Y9870362D2*
Y9876399D1*
X6345402Y9888612D1*
X6339366Y9894649D1*
X6327152Y9900685D1*
X6302866D1*
X6290793Y9894649D1*
X6284756Y9888612D1*
X6278579Y9876399D1*
Y9864326D1*
X6284756Y9852112D1*
X6296829Y9834002D1*
X6357616Y9773216D1*
X6272543D1*
X6196827Y9900685D2*
X6215077Y9894649D1*
X6227290Y9876399D1*
X6233327Y9846076D1*
Y9827826D1*
X6227290Y9797502D1*
X6215077Y9779252D1*
X6196827Y9773216D1*
X6184754D1*
X6166504Y9779252D1*
X6154431Y9797502D1*
X6148254Y9827826D1*
Y9846076D1*
X6154431Y9876399D1*
X6166504Y9894649D1*
X6184754Y9900685D1*
X6196827D1*
X6154431Y9876399D2*
X6227290Y9797502D1*
X6109038Y9876399D2*
X6096825Y9882576D1*
X6078575Y9900685D1*
Y9773216D1*
X6009036Y9900685D2*
X6027146Y9894649D1*
X6033322Y9882576D1*
Y9870362D1*
X6027146Y9858289D1*
X6015072Y9852112D1*
X5990786Y9846076D1*
X5972536Y9840039D1*
X5960463Y9827826D1*
X5954426Y9815752D1*
Y9797502D1*
X5960463Y9785429D1*
X5966499Y9779252D1*
X5984749Y9773216D1*
X6009036D1*
X6027146Y9779252D1*
X6033322Y9785429D1*
X6039359Y9797502D1*
Y9815752D1*
X6033322Y9827826D1*
X6021109Y9840039D1*
X6002999Y9846076D1*
X5978713Y9852112D1*
X5966499Y9858289D1*
X5960463Y9870362D1*
Y9882576D1*
X5966499Y9894649D1*
X5984749Y9900685D1*
X6009036D1*
X5915211Y9836951D2*
X5845018D1*
X5805803Y9876399D2*
X5793589Y9882576D1*
X5775339Y9900685D1*
Y9773216D1*
X5736123Y9876399D2*
X5723910Y9882576D1*
X5705660Y9900685D1*
Y9773216D1*
X5666444Y9836951D2*
X5596252D1*
X5550859Y9870362D2*
Y9876399D1*
X5544823Y9888612D1*
X5538786Y9894649D1*
X5526573Y9900685D1*
X5502286D1*
X5490213Y9894649D1*
X5484177Y9888612D1*
X5478000Y9876399D1*
Y9864326D1*
X5484177Y9852112D1*
X5496250Y9834002D1*
X5557036Y9773216D1*
X5471963D1*
X5396248Y9900685D2*
X5414498Y9894649D1*
X5426711Y9876399D1*
X5432748Y9846076D1*
Y9827826D1*
X5426711Y9797502D1*
X5414498Y9779252D1*
X5396248Y9773216D1*
X5384175D1*
X5365925Y9779252D1*
X5353851Y9797502D1*
X5347675Y9827826D1*
Y9846076D1*
X5353851Y9876399D1*
X5365925Y9894649D1*
X5384175Y9900685D1*
X5396248D1*
X5353851Y9876399D2*
X5426711Y9797502D1*
M02*
