%TF.GenerationSoftware,Novarm,DipTrace,3.2.0.1*%
%TF.CreationDate,2018-11-20T20:13:32+01:00*%
%FSLAX35Y35*%
%MOMM*%
%TF.FileFunction,Legend,Top*%
%TF.Part,Single*%
%ADD10C,0.25*%
%ADD21O,0.39124X0.39193*%
%ADD24O,0.59995X0.60008*%
%ADD26O,0.59996X0.59976*%
%ADD54C,0.19608*%
G75*
G01*
%LPD*%
X3874972Y5518872D2*
D10*
Y3698968D1*
X4514968Y5518872D2*
Y3698968D1*
X3874972D2*
X4514968D1*
X3874972Y5518872D2*
X4114942D1*
X4274998D2*
X4514968D1*
X4114942D2*
G03X4274998Y5518872I80028J134D01*
G01*
X3866875Y9950078D2*
Y8130175D1*
X4506871Y9950078D2*
Y8130175D1*
X3866875D2*
X4506871D1*
X3866875Y9950078D2*
X4106845D1*
X4266901D2*
X4506871D1*
X4106845D2*
G03X4266901Y9950078I80028J134D01*
G01*
G36*
X800339Y187877D2*
X1043123D1*
Y10557877D1*
X800339D1*
Y187877D1*
G37*
G36*
X7307123D2*
X7549907D1*
Y10557877D1*
X7307123D1*
Y187877D1*
G37*
G36*
X4094771Y262541D2*
X4255475D1*
Y342390D1*
X4094771D1*
Y262541D1*
G37*
G36*
Y10403364D2*
X4255475D1*
Y10483213D1*
X4094771D1*
Y10403364D1*
G37*
X841000Y194500D2*
D10*
Y1694500D1*
X801016Y194500D2*
Y1694500D1*
X841000Y194500D2*
X-139000D1*
Y1694500D1*
X841000D1*
Y1718500D2*
Y3218500D1*
X801016Y1718500D2*
Y3218500D1*
X841000Y1718500D2*
X-139000D1*
Y3218500D1*
X841000D1*
Y3242500D2*
Y5242500D1*
X801016Y3242500D2*
Y5242500D1*
X841000Y3242500D2*
X-139000D1*
Y5242500D1*
X841000D1*
Y5496750D2*
Y6996750D1*
X801016Y5496750D2*
Y6996750D1*
X841000Y5496750D2*
X-139000D1*
Y6996750D1*
X841000D1*
Y7020750D2*
Y8520750D1*
X801016Y7020750D2*
Y8520750D1*
X841000Y7020750D2*
X-139000D1*
Y8520750D1*
X841000D1*
Y8544750D2*
Y10544750D1*
X801016Y8544750D2*
Y10544750D1*
X841000Y8544750D2*
X-139000D1*
Y10544750D1*
X841000D1*
X7509250Y10537000D2*
Y9037000D1*
X7549234Y10537000D2*
Y9037000D1*
X7509250Y10537000D2*
X8489250D1*
Y9037000D1*
X7509250D1*
Y9013000D2*
Y7513000D1*
X7549234Y9013000D2*
Y7513000D1*
X7509250Y9013000D2*
X8489250D1*
Y7513000D1*
X7509250D1*
Y7489000D2*
Y5489000D1*
X7549234Y7489000D2*
Y5489000D1*
X7509250Y7489000D2*
X8489250D1*
Y5489000D1*
X7509250D1*
Y5250627D2*
Y3750627D1*
X7549234Y5250627D2*
Y3750627D1*
X7509250Y5250627D2*
X8489250D1*
Y3750627D1*
X7509250D1*
Y3726627D2*
Y2226627D1*
X7549234Y3726627D2*
Y2226627D1*
X7509250Y3726627D2*
X8489250D1*
Y2226627D1*
X7509250D1*
Y2202627D2*
Y202627D1*
X7549234Y2202627D2*
Y202627D1*
X7509250Y2202627D2*
X8489250D1*
Y202627D1*
X7509250D1*
X2436893Y1568507D2*
X2306993D1*
X3752210Y1580673D2*
X3622310D1*
D21*
X2579554Y1548363D3*
X2576914Y1775057D2*
D10*
X3236882D1*
X2576914Y2055056D2*
X3236882D1*
Y1775057D2*
Y2055056D1*
X2576914Y1775057D2*
Y2055056D1*
X6032832Y9940348D2*
Y8780285D1*
X6672828Y9940348D2*
Y8780285D1*
X6032832D2*
X6672828D1*
X6032832Y9940348D2*
X6272802D1*
X6432858D2*
X6672828D1*
X6272802D2*
G03X6432858Y9940348I80028J-16D01*
G01*
X2334231Y8903535D2*
Y10063598D1*
X1694235Y8903535D2*
Y10063598D1*
X2334231D2*
X1694235D1*
X2334231Y8903535D2*
X2094261D1*
X1934205D2*
X1694235D1*
X2094261D2*
G03X1934205Y8903535I-80028J16D01*
G01*
X6035879Y5504688D2*
Y4344625D1*
X6675875Y5504688D2*
Y4344625D1*
X6035879D2*
X6675875D1*
X6035879Y5504688D2*
X6275849D1*
X6435905D2*
X6675875D1*
X6275849D2*
G03X6435905Y5504688I80028J-16D01*
G01*
X2335145Y4470912D2*
Y5630975D1*
X1695149Y4470912D2*
Y5630975D1*
X2335145D2*
X1695149D1*
X2335145Y4470912D2*
X2095175D1*
X1935119D2*
X1695149D1*
X2095175D2*
G03X1935119Y4470912I-80028J16D01*
G01*
D24*
X4288290Y1806401D3*
X4223290Y2006341D2*
D10*
X4933290D1*
Y2506373D1*
X4223290D1*
Y2006341D1*
G36*
X4387797Y2129373D2*
X4514816D1*
Y2192917D1*
X4387797D1*
Y2129373D1*
G37*
G36*
X4641764D2*
X4768783D1*
Y2192917D1*
X4641764D1*
Y2129373D1*
G37*
X3209470Y4402747D2*
D10*
X3339370D1*
X3252837Y8868347D2*
X3382737D1*
X3497603Y1575013D2*
X3367703D1*
X1561103Y2159800D2*
X1701129Y2159872D1*
X1561103Y2159800D2*
Y1714912D1*
X1646115Y1629880D2*
X1561103Y1714912D1*
X1646115Y1629880D2*
X1701129Y1629808D1*
X1951077Y2159872D2*
X2091103Y2159800D1*
Y1714912D1*
X2006091Y1629880D2*
X2091103Y1714912D1*
X1951077Y1629808D2*
X2006091Y1629880D1*
D26*
X1681095Y1564828D3*
X4117594Y5704858D2*
D54*
Y5613749D1*
X4123630Y5595499D1*
X4135844Y5583426D1*
X4154094Y5577249D1*
X4166167D1*
X4184417Y5583426D1*
X4196630Y5595499D1*
X4202667Y5613749D1*
Y5704858D1*
X4241883Y5680431D2*
X4254096Y5686608D1*
X4272346Y5704718D1*
Y5577249D1*
X4082192Y10136065D2*
Y10044955D1*
X4088229Y10026705D1*
X4100442Y10014632D1*
X4118692Y10008455D1*
X4130765D1*
X4149015Y10014632D1*
X4161229Y10026705D1*
X4167265Y10044955D1*
Y10136065D1*
X4212658Y10105601D2*
Y10111638D1*
X4218695Y10123851D1*
X4224731Y10129888D1*
X4236945Y10135925D1*
X4261231D1*
X4273304Y10129888D1*
X4279341Y10123851D1*
X4285518Y10111638D1*
Y10099565D1*
X4279341Y10087351D1*
X4267268Y10069242D1*
X4206481Y10008455D1*
X4291554D1*
X5011232Y451623D2*
Y360514D1*
X5017269Y342264D1*
X5029482Y330191D1*
X5047732Y324014D1*
X5059805D1*
X5078055Y330191D1*
X5090269Y342264D1*
X5096305Y360514D1*
Y451623D1*
X5147735Y451483D2*
X5214417D1*
X5178058Y402910D1*
X5196308D1*
X5208381Y396873D1*
X5214417Y390837D1*
X5220594Y372587D1*
Y360514D1*
X5214417Y342264D1*
X5202344Y330050D1*
X5184094Y324014D1*
X5165844D1*
X5147735Y330050D1*
X5141698Y336227D1*
X5135521Y348300D1*
X1137051Y1664103D2*
Y1572994D1*
X1143087Y1554744D1*
X1155301Y1542671D1*
X1173551Y1536494D1*
X1185624D1*
X1203874Y1542671D1*
X1216087Y1554744D1*
X1222124Y1572994D1*
Y1664103D1*
X1322126Y1536494D2*
Y1663963D1*
X1261340Y1579030D1*
X1352449D1*
X1130662Y3197513D2*
Y3106404D1*
X1136699Y3088154D1*
X1148912Y3076081D1*
X1167162Y3069904D1*
X1179235D1*
X1197485Y3076081D1*
X1209699Y3088154D1*
X1215735Y3106404D1*
Y3197513D1*
X1327811Y3197373D2*
X1267165D1*
X1261128Y3142763D1*
X1267165Y3148800D1*
X1285415Y3154977D1*
X1303524D1*
X1321774Y3148800D1*
X1333988Y3136727D1*
X1340024Y3118477D1*
Y3106404D1*
X1333988Y3088154D1*
X1321774Y3075940D1*
X1303524Y3069904D1*
X1285415D1*
X1267165Y3075940D1*
X1261128Y3082117D1*
X1254951Y3094190D1*
X1096118Y5202697D2*
Y5111587D1*
X1102154Y5093337D1*
X1114368Y5081264D1*
X1132618Y5075087D1*
X1144691D1*
X1162941Y5081264D1*
X1175154Y5093337D1*
X1181191Y5111587D1*
Y5202697D1*
X1293266Y5184447D2*
X1287229Y5196520D1*
X1268979Y5202556D1*
X1256906D1*
X1238656Y5196520D1*
X1226443Y5178270D1*
X1220406Y5147947D1*
Y5117624D1*
X1226443Y5093337D1*
X1238656Y5081124D1*
X1256906Y5075087D1*
X1262943D1*
X1281052Y5081124D1*
X1293266Y5093337D1*
X1299302Y5111587D1*
Y5117624D1*
X1293266Y5135874D1*
X1281052Y5147947D1*
X1262943Y5153983D1*
X1256906D1*
X1238656Y5147947D1*
X1226443Y5135874D1*
X1220406Y5117624D1*
X1121252Y6947540D2*
Y6856430D1*
X1127289Y6838180D1*
X1139502Y6826107D1*
X1157752Y6819930D1*
X1169825D1*
X1188075Y6826107D1*
X1200289Y6838180D1*
X1206325Y6856430D1*
Y6947540D1*
X1269828Y6819930D2*
X1330614Y6947400D1*
X1245541D1*
X1140139Y8462130D2*
Y8371020D1*
X1146176Y8352770D1*
X1158389Y8340697D1*
X1176639Y8334520D1*
X1188712D1*
X1206962Y8340697D1*
X1219176Y8352770D1*
X1225212Y8371020D1*
Y8462130D1*
X1294751Y8461990D2*
X1276641Y8455953D1*
X1270465Y8443880D1*
Y8431666D1*
X1276641Y8419593D1*
X1288715Y8413416D1*
X1313001Y8407380D1*
X1331251Y8401343D1*
X1343324Y8389130D1*
X1349361Y8377057D1*
Y8358807D1*
X1343324Y8346734D1*
X1337288Y8340557D1*
X1319038Y8334520D1*
X1294751D1*
X1276641Y8340557D1*
X1270465Y8346734D1*
X1264428Y8358807D1*
Y8377057D1*
X1270465Y8389130D1*
X1282678Y8401343D1*
X1300788Y8407380D1*
X1325074Y8413416D1*
X1337288Y8419593D1*
X1343324Y8431666D1*
Y8443880D1*
X1337288Y8455953D1*
X1319038Y8461990D1*
X1294751D1*
X1096047Y10476723D2*
Y10385614D1*
X1102084Y10367364D1*
X1114297Y10355291D1*
X1132547Y10349114D1*
X1144620D1*
X1162870Y10355291D1*
X1175084Y10367364D1*
X1181120Y10385614D1*
Y10476723D1*
X1299373Y10434187D2*
X1293196Y10415937D1*
X1281123Y10403723D1*
X1262873Y10397687D1*
X1256836D1*
X1238586Y10403723D1*
X1226513Y10415937D1*
X1220336Y10434187D1*
Y10440223D1*
X1226513Y10458473D1*
X1238586Y10470546D1*
X1256836Y10476583D1*
X1262873D1*
X1281123Y10470546D1*
X1293196Y10458473D1*
X1299373Y10434187D1*
Y10403723D1*
X1293196Y10373400D1*
X1281123Y10355150D1*
X1262873Y10349114D1*
X1250800D1*
X1232550Y10355150D1*
X1226513Y10367364D1*
X6994203Y10487790D2*
Y10396680D1*
X7000239Y10378430D1*
X7012453Y10366357D1*
X7030703Y10360180D1*
X7042776D1*
X7061026Y10366357D1*
X7073239Y10378430D1*
X7079276Y10396680D1*
Y10487790D1*
X7118492Y10463363D2*
X7130705Y10469540D1*
X7148955Y10487650D1*
Y10360180D1*
X7224671Y10487650D2*
X7206421Y10481613D1*
X7194207Y10463363D1*
X7188171Y10433040D1*
Y10414790D1*
X7194207Y10384467D1*
X7206421Y10366217D1*
X7224671Y10360180D1*
X7236744D1*
X7254994Y10366217D1*
X7267067Y10384467D1*
X7273244Y10414790D1*
Y10433040D1*
X7267067Y10463363D1*
X7254994Y10481613D1*
X7236744Y10487650D1*
X7224671D1*
X7267067Y10463363D2*
X7194207Y10384467D1*
X7002691Y8982603D2*
Y8891494D1*
X7008728Y8873244D1*
X7020941Y8861171D1*
X7039191Y8854994D1*
X7051264D1*
X7069514Y8861171D1*
X7081728Y8873244D1*
X7087764Y8891494D1*
Y8982603D1*
X7126980Y8958176D2*
X7139193Y8964353D1*
X7157443Y8982463D1*
Y8854994D1*
X7196659Y8958176D2*
X7208872Y8964353D1*
X7227122Y8982463D1*
Y8854994D1*
X6965980Y7449197D2*
Y7358087D1*
X6972016Y7339837D1*
X6984230Y7327764D1*
X7002480Y7321587D1*
X7014553D1*
X7032803Y7327764D1*
X7045016Y7339837D1*
X7051053Y7358087D1*
Y7449197D1*
X7090268Y7424770D2*
X7102482Y7430947D1*
X7120732Y7449056D1*
Y7321587D1*
X7166124Y7418733D2*
Y7424770D1*
X7172161Y7436983D1*
X7178197Y7443020D1*
X7190411Y7449056D1*
X7214697D1*
X7226770Y7443020D1*
X7232807Y7436983D1*
X7238984Y7424770D1*
Y7412697D1*
X7232807Y7400483D1*
X7220734Y7382374D1*
X7159947Y7321587D1*
X7245020D1*
X6975386Y5201417D2*
Y5110307D1*
X6981423Y5092057D1*
X6993636Y5079984D1*
X7011886Y5073807D1*
X7023959D1*
X7042209Y5079984D1*
X7054423Y5092057D1*
X7060459Y5110307D1*
Y5201417D1*
X7099675Y5176990D2*
X7111888Y5183167D1*
X7130138Y5201276D1*
Y5073807D1*
X7181568Y5201276D2*
X7248250D1*
X7211891Y5152703D1*
X7230141D1*
X7242214Y5146667D1*
X7248250Y5140630D1*
X7254427Y5122380D1*
Y5110307D1*
X7248250Y5092057D1*
X7236177Y5079844D1*
X7217927Y5073807D1*
X7199677D1*
X7181568Y5079844D1*
X7175531Y5086020D1*
X7169354Y5098094D1*
X6972368Y3668007D2*
Y3576897D1*
X6978404Y3558647D1*
X6990618Y3546574D1*
X7008868Y3540397D1*
X7020941D1*
X7039191Y3546574D1*
X7051404Y3558647D1*
X7057441Y3576897D1*
Y3668007D1*
X7096657Y3643580D2*
X7108870Y3649757D1*
X7127120Y3667866D1*
Y3540397D1*
X7227122D2*
Y3667866D1*
X7166336Y3582934D1*
X7257445D1*
X6965980Y2144007D2*
Y2052897D1*
X6972016Y2034647D1*
X6984230Y2022574D1*
X7002480Y2016397D1*
X7014553D1*
X7032803Y2022574D1*
X7045016Y2034647D1*
X7051053Y2052897D1*
Y2144007D1*
X7090268Y2119580D2*
X7102482Y2125757D1*
X7120732Y2143866D1*
Y2016397D1*
X7232807Y2143866D2*
X7172161D1*
X7166124Y2089257D1*
X7172161Y2095293D1*
X7190411Y2101470D1*
X7208520D1*
X7226770Y2095293D1*
X7238984Y2083220D1*
X7245020Y2064970D1*
Y2052897D1*
X7238984Y2034647D1*
X7226770Y2022434D1*
X7208520Y2016397D1*
X7190411D1*
X7172161Y2022434D1*
X7166124Y2028610D1*
X7159947Y2040684D1*
X2345737Y2129384D2*
X2333664Y2123348D1*
X2321450Y2111134D1*
X2315413Y2099061D1*
Y2074775D1*
X2321450Y2062561D1*
X2333663Y2050488D1*
X2345736Y2044311D1*
X2363986Y2038275D1*
X2394450D1*
X2412560Y2044311D1*
X2424773Y2050488D1*
X2436846Y2062561D1*
X2443023Y2074775D1*
Y2099061D1*
X2436846Y2111134D1*
X2424773Y2123348D1*
X2412560Y2129384D1*
X2339840Y2168600D2*
X2333664Y2180814D1*
X2315554Y2199064D1*
X2443023Y2199063D1*
X2315554Y2250493D2*
Y2317175D1*
X2364127Y2280816D1*
Y2299066D1*
X2370164Y2311139D1*
X2376200Y2317175D1*
X2394450Y2323352D1*
X2406523D1*
X2424773Y2317175D1*
X2436987Y2305102D1*
X2443023Y2286852D1*
Y2268602D1*
X2436987Y2250493D1*
X2430810Y2244456D1*
X2418737Y2238279D1*
X3654097Y2110031D2*
X3642024Y2103994D1*
X3629810Y2091781D1*
X3623774Y2079708D1*
Y2055421D1*
X3629810Y2043208D1*
X3642024Y2031135D1*
X3654097Y2024958D1*
X3672347Y2018921D1*
X3702810D1*
X3720920Y2024958D1*
X3733133Y2031135D1*
X3745206Y2043208D1*
X3751383Y2055421D1*
Y2079708D1*
X3745206Y2091781D1*
X3733133Y2103994D1*
X3720920Y2110031D1*
X3648201Y2149247D2*
X3642024Y2161460D1*
X3623914Y2179710D1*
X3751383D1*
Y2279712D2*
X3623914D1*
X3708847Y2218926D1*
Y2310035D1*
X2762005Y2498543D2*
Y2407434D1*
X2768041Y2389184D1*
X2780255Y2377111D1*
X2798505Y2370934D1*
X2810578D1*
X2828828Y2377111D1*
X2841041Y2389184D1*
X2847078Y2407434D1*
Y2498543D1*
X2886293Y2474116D2*
X2898507Y2480293D1*
X2916757Y2498403D1*
Y2370934D1*
X3028832Y2480293D2*
X3022796Y2492366D1*
X3004546Y2498403D1*
X2992473D1*
X2974223Y2492366D1*
X2962009Y2474116D1*
X2955973Y2443793D1*
Y2413470D1*
X2962009Y2389184D1*
X2974223Y2376970D1*
X2992473Y2370934D1*
X2998509D1*
X3016619Y2376970D1*
X3028832Y2389184D1*
X3034869Y2407434D1*
Y2413470D1*
X3028832Y2431720D1*
X3016619Y2443793D1*
X2998509Y2449830D1*
X2992473D1*
X2974223Y2443793D1*
X2962009Y2431720D1*
X2955973Y2413470D1*
X6213310Y10126335D2*
Y10035225D1*
X6219346Y10016975D1*
X6231560Y10004902D1*
X6249810Y9998725D1*
X6261883D1*
X6280133Y10004902D1*
X6292346Y10016975D1*
X6298383Y10035225D1*
Y10126335D1*
X6337598Y10101908D2*
X6349812Y10108085D1*
X6368062Y10126195D1*
Y9998725D1*
X6431564D2*
X6492350Y10126195D1*
X6407277D1*
X1874783Y10249585D2*
Y10158475D1*
X1880820Y10140225D1*
X1893033Y10128152D1*
X1911283Y10121975D1*
X1923356D1*
X1941606Y10128152D1*
X1953820Y10140225D1*
X1959856Y10158475D1*
Y10249585D1*
X1999072Y10225158D2*
X2011285Y10231335D1*
X2029535Y10249445D1*
Y10121975D1*
X2099074Y10249445D2*
X2080964Y10243408D1*
X2074787Y10231335D1*
Y10219121D1*
X2080964Y10207048D1*
X2093037Y10200871D1*
X2117324Y10194835D1*
X2135574Y10188798D1*
X2147647Y10176585D1*
X2153684Y10164512D1*
Y10146262D1*
X2147647Y10134189D1*
X2141611Y10128012D1*
X2123361Y10121975D1*
X2099074D1*
X2080964Y10128012D1*
X2074787Y10134189D1*
X2068751Y10146262D1*
Y10164512D1*
X2074787Y10176585D1*
X2087001Y10188798D1*
X2105111Y10194835D1*
X2129397Y10200871D1*
X2141611Y10207048D1*
X2147647Y10219121D1*
Y10231335D1*
X2141611Y10243408D1*
X2123361Y10249445D1*
X2099074D1*
X6219374Y5690675D2*
Y5599565D1*
X6225411Y5581315D1*
X6237624Y5569242D1*
X6255874Y5563065D1*
X6267948D1*
X6286198Y5569242D1*
X6298411Y5581315D1*
X6304448Y5599565D1*
Y5690675D1*
X6343663Y5666248D2*
X6355877Y5672425D1*
X6374127Y5690535D1*
Y5563065D1*
X6492379Y5648138D2*
X6486202Y5629888D1*
X6474129Y5617675D1*
X6455879Y5611638D1*
X6449842D1*
X6431592Y5617675D1*
X6419519Y5629888D1*
X6413342Y5648138D1*
Y5654175D1*
X6419519Y5672425D1*
X6431592Y5684498D1*
X6449842Y5690535D1*
X6455879D1*
X6474129Y5684498D1*
X6486202Y5672425D1*
X6492379Y5648138D1*
Y5617675D1*
X6486202Y5587352D1*
X6474129Y5569102D1*
X6455879Y5563065D1*
X6443806D1*
X6425556Y5569102D1*
X6419519Y5581315D1*
X1848321Y5816962D2*
Y5725852D1*
X1854358Y5707602D1*
X1866571Y5695529D1*
X1884821Y5689352D1*
X1896894D1*
X1915144Y5695529D1*
X1927358Y5707602D1*
X1933394Y5725852D1*
Y5816962D1*
X1978787Y5786498D2*
Y5792535D1*
X1984824Y5804748D1*
X1990860Y5810785D1*
X2003074Y5816821D1*
X2027360D1*
X2039433Y5810785D1*
X2045470Y5804748D1*
X2051647Y5792535D1*
Y5780462D1*
X2045470Y5768248D1*
X2033397Y5750139D1*
X1972610Y5689352D1*
X2057683D1*
X2133399Y5816821D2*
X2115149Y5810785D1*
X2102935Y5792535D1*
X2096899Y5762212D1*
Y5743962D1*
X2102935Y5713639D1*
X2115149Y5695389D1*
X2133399Y5689352D1*
X2145472D1*
X2163722Y5695389D1*
X2175795Y5713639D1*
X2181972Y5743962D1*
Y5762212D1*
X2175795Y5792535D1*
X2163722Y5810785D1*
X2145472Y5816821D1*
X2133399D1*
X2175795Y5792535D2*
X2102935Y5713639D1*
X5076684Y2319040D2*
X5064611Y2331253D1*
X5046361Y2337290D1*
X5022074D1*
X5003824Y2331253D1*
X4991611Y2319040D1*
Y2306967D1*
X4997787Y2294753D1*
X5003824Y2288717D1*
X5015897Y2282680D1*
X5052397Y2270467D1*
X5064611Y2264430D1*
X5070647Y2258253D1*
X5076684Y2246180D1*
Y2227930D1*
X5064611Y2215857D1*
X5046361Y2209680D1*
X5022074D1*
X5003824Y2215857D1*
X4991611Y2227930D1*
X5115899Y2312863D2*
X5128113Y2319040D1*
X5146363Y2337150D1*
Y2209680D1*
X3048146Y4343158D2*
X3036072Y4337121D1*
X3023859Y4324908D1*
X3017822Y4312835D1*
Y4288548D1*
X3023859Y4276335D1*
X3036072Y4264262D1*
X3048145Y4258085D1*
X3066395Y4252048D1*
X3096859D1*
X3114968Y4258085D1*
X3127182Y4264262D1*
X3139255Y4276335D1*
X3145432Y4288548D1*
Y4312835D1*
X3139255Y4324908D1*
X3127182Y4337121D1*
X3114969Y4343158D1*
X3042249Y4382373D2*
X3036072Y4394587D1*
X3017963Y4412837D1*
X3145432D1*
X3067304Y8773305D2*
X3055231Y8767268D1*
X3043017Y8755055D1*
X3036981Y8742982D1*
Y8718695D1*
X3043017Y8706482D1*
X3055231Y8694409D1*
X3067304Y8688232D1*
X3085554Y8682195D1*
X3116017D1*
X3134127Y8688232D1*
X3146340Y8694409D1*
X3158414Y8706482D1*
X3164591Y8718695D1*
Y8742982D1*
X3158414Y8755055D1*
X3146341Y8767268D1*
X3134127Y8773305D1*
X3067444Y8818697D2*
X3061408D1*
X3049194Y8824734D1*
X3043158Y8830770D1*
X3037121Y8842984D1*
Y8867270D1*
X3043158Y8879343D1*
X3049194Y8885380D1*
X3061408Y8891557D1*
X3073481D1*
X3085694Y8885380D1*
X3103804Y8873307D1*
X3164590Y8812520D1*
Y8897593D1*
X3403879Y2115895D2*
X3391806Y2109859D1*
X3379592Y2097645D1*
X3373556Y2085572D1*
Y2061286D1*
X3379592Y2049072D1*
X3391806Y2036999D1*
X3403879Y2030822D1*
X3422129Y2024786D1*
X3452592D1*
X3470702Y2030822D1*
X3482915Y2036999D1*
X3494989Y2049072D1*
X3501166Y2061286D1*
Y2085572D1*
X3494989Y2097645D1*
X3482916Y2109859D1*
X3470702Y2115895D1*
X3373696Y2167325D2*
Y2234007D1*
X3422269Y2197648D1*
Y2215898D1*
X3428306Y2227971D1*
X3434342Y2234007D1*
X3452592Y2240184D1*
X3464666D1*
X3482915Y2234007D1*
X3495129Y2221934D1*
X3501165Y2203684D1*
Y2185434D1*
X3495129Y2167324D1*
X3488952Y2161288D1*
X3476879Y2155111D1*
X1806495Y2410504D2*
X1800459Y2422577D1*
X1788245Y2434790D1*
X1776172Y2440827D1*
X1751886D1*
X1739672Y2434790D1*
X1727599Y2422577D1*
X1721422Y2410504D1*
X1715386Y2392254D1*
Y2361790D1*
X1721422Y2343680D1*
X1727599Y2331467D1*
X1739672Y2319394D1*
X1751886Y2313217D1*
X1776172D1*
X1788245Y2319394D1*
X1800459Y2331467D1*
X1806495Y2343680D1*
X1906498Y2313217D2*
Y2440686D1*
X1845711Y2355754D1*
X1936821D1*
X4590422Y3178962D2*
X4645032D1*
X4663282Y3185139D1*
X4669459Y3191176D1*
X4675495Y3203249D1*
Y3215462D1*
X4669459Y3227535D1*
X4663282Y3233712D1*
X4645032Y3239749D1*
X4590422D1*
Y3112139D1*
X4632959Y3178962D2*
X4675495Y3112139D1*
X4714711Y3215322D2*
X4726924Y3221499D1*
X4745174Y3239608D1*
Y3112139D1*
X4589589Y2967543D2*
X4644199D1*
X4662449Y2973720D1*
X4668626Y2979757D1*
X4674662Y2991830D1*
Y3004043D1*
X4668626Y3016116D1*
X4662449Y3022293D1*
X4644199Y3028330D1*
X4589589D1*
Y2900720D1*
X4632126Y2967543D2*
X4674662Y2900720D1*
X4720055Y2997866D2*
Y3003903D1*
X4726091Y3016116D1*
X4732128Y3022153D1*
X4744341Y3028190D1*
X4768628D1*
X4780701Y3022153D1*
X4786737Y3016116D1*
X4792914Y3003903D1*
Y2991830D1*
X4786737Y2979616D1*
X4774664Y2961507D1*
X4713878Y2900720D1*
X4798951D1*
X4481939Y1397453D2*
X4536549D1*
X4554799Y1403630D1*
X4560976Y1409667D1*
X4567012Y1421740D1*
Y1433953D1*
X4560976Y1446026D1*
X4554799Y1452203D1*
X4536549Y1458240D1*
X4481939D1*
Y1330630D1*
X4524476Y1397453D2*
X4567012Y1330630D1*
X4618441Y1458100D2*
X4685124D1*
X4648764Y1409526D1*
X4667014D1*
X4679087Y1403490D1*
X4685124Y1397453D1*
X4691301Y1379203D1*
Y1367130D1*
X4685124Y1348880D1*
X4673051Y1336667D1*
X4654801Y1330630D1*
X4636551D1*
X4618441Y1336667D1*
X4612405Y1342844D1*
X4606228Y1354917D1*
X5338487Y1810561D2*
X5210878Y1761847D1*
X5338487Y1713274D1*
X5295951Y1731524D2*
Y1792311D1*
X5210878Y1922636D2*
X5338487D1*
X5271664D2*
X5259451Y1910563D1*
X5253414Y1898350D1*
Y1880100D1*
X5259451Y1868026D1*
X5271664Y1855813D1*
X5289914Y1849776D1*
X5301988D1*
X5320237Y1855813D1*
X5332311Y1868026D1*
X5338487Y1880099D1*
Y1898349D1*
X5332311Y1910563D1*
X5320237Y1922636D1*
X5210878Y2034711D2*
X5338487D1*
X5271664D2*
X5259451Y2022638D1*
X5253414Y2010425D1*
Y1992175D1*
X5259451Y1980102D1*
X5271664Y1967888D1*
X5289914Y1961852D1*
X5301987D1*
X5320237Y1967888D1*
X5332311Y1980102D1*
X5338487Y1992175D1*
Y2010425D1*
X5332310Y2022638D1*
X5320237Y2034711D1*
X5253414Y2073927D2*
X5338487D1*
X5289914D2*
X5271664Y2080104D1*
X5259451Y2092177D1*
X5253414Y2104390D1*
Y2122640D1*
X5271664Y2352126D2*
X5259451Y2346089D1*
X5253414Y2327839D1*
Y2309589D1*
X5259451Y2291339D1*
X5271664Y2285303D1*
X5283737Y2291339D1*
X5289914Y2303553D1*
X5295951Y2333876D1*
X5301987Y2346089D1*
X5314201Y2352126D1*
X5320237D1*
X5332310Y2346089D1*
X5338487Y2327839D1*
Y2309589D1*
X5332310Y2291339D1*
X5320237Y2285303D1*
X5289914Y2391341D2*
Y2464201D1*
X5277701D1*
X5265487Y2458164D1*
X5259451Y2452128D1*
X5253414Y2439914D1*
Y2421664D1*
X5259451Y2409591D1*
X5271664Y2397378D1*
X5289914Y2391341D1*
X5301987D1*
X5320237Y2397378D1*
X5332310Y2409591D1*
X5338487Y2421664D1*
Y2439914D1*
X5332310Y2452128D1*
X5320237Y2464201D1*
X5210878Y2503417D2*
X5338487D1*
X5289914Y2542632D2*
Y2615492D1*
X5277701D1*
X5265487Y2609455D1*
X5259451Y2603419D1*
X5253414Y2591205D1*
Y2572955D1*
X5259451Y2560882D1*
X5271664Y2548669D1*
X5289914Y2542632D1*
X5301987D1*
X5320237Y2548669D1*
X5332310Y2560882D1*
X5338487Y2572955D1*
Y2591205D1*
X5332310Y2603419D1*
X5320237Y2615492D1*
X5271664Y2727708D2*
X5259451Y2715494D1*
X5253414Y2703281D1*
Y2685171D1*
X5259451Y2672958D1*
X5271664Y2660885D1*
X5289914Y2654708D1*
X5301987D1*
X5320237Y2660885D1*
X5332310Y2672958D1*
X5338487Y2685171D1*
Y2703281D1*
X5332310Y2715494D1*
X5320237Y2727708D1*
X5210878Y2785173D2*
X5314201D1*
X5332310Y2791210D1*
X5338487Y2803423D1*
Y2815496D1*
X5253414Y2766923D2*
Y2809460D1*
X1174734Y531452D2*
X1114088D1*
X1108051Y476843D1*
X1114088Y482879D1*
X1132338Y489056D1*
X1150447D1*
X1168697Y482879D1*
X1180911Y470806D1*
X1186947Y452556D1*
Y440483D1*
X1180911Y422233D1*
X1168697Y410020D1*
X1150447Y403983D1*
X1132338D1*
X1114088Y410020D1*
X1108051Y416196D1*
X1101874Y428270D1*
X1226163Y531593D2*
X1274736Y403983D1*
X1323309Y531593D1*
X7077971Y537260D2*
X7017325D1*
X7011288Y482650D1*
X7017325Y488687D1*
X7035575Y494863D1*
X7053684D1*
X7071934Y488687D1*
X7084148Y476613D1*
X7090184Y458363D1*
Y446290D1*
X7084148Y428040D1*
X7071934Y415827D1*
X7053684Y409790D1*
X7035575D1*
X7017325Y415827D1*
X7011288Y422004D1*
X7005111Y434077D1*
X7129400Y537400D2*
X7177973Y409790D1*
X7226546Y537400D1*
M02*
