M48
METRIC,0000.00
T01C0.486
T02C0.65
T03C1.3
%
T01
X+001973Y+001357
X+002017Y+001279
X+001968Y+001203
X+002072Y+001200
X+002124Y+001275
X+002172Y+001348
X+002075Y+001354
X+002167Y+001198
X+001409Y+001323
X+001319Y+001297
X+001380Y+001231
X+001347Y+001401
X+001288Y+001473
X+001192Y+001455
X+001253Y+001368
X+003744Y+001289
X+003804Y+001358
X+003870Y+001293
X+003931Y+001354
X+003997Y+001283
X+004295Y+001610
X+004351Y+001551
X+004403Y+001491
X+004463Y+001551
X+004416Y+001605
X+004531Y+001600
X+004525Y+001501
X+004245Y+002669
X+004476Y+003782
X+004903Y+004165
X+005784Y+004270
X+005878Y+004268
X+003449Y+003812
X+003329Y+003908
X+003083Y+004076
X+003079Y+004172
X+002509Y+005709
X+002407Y+005711
X+003449Y+008191
X+003329Y+008277
X+003107Y+008517
X+003109Y+008623
X+004424Y+008123
X+004994Y+008509
X+005813Y+008706
X+005934Y+008702
X+002528Y+010116
X+002416Y+010116
X+007143Y+001526
X+007218Y+001506
X+007119Y+001407
X+007026Y+001425
X+007013Y+001301
X+006916Y+001285
X+006902Y+001170
T02
X+003159Y+000651
X+003413Y+000651
X+003667Y+000651
X+003921Y+000651
X+004175Y+000651
X+004429Y+000651
X+004683Y+000651
X+004937Y+000651
X+005191Y+000651
X+005191Y+000905
X+004937Y+000905
X+004683Y+000905
X+004429Y+000905
X+004175Y+000905
X+003921Y+000905
X+003667Y+000905
X+003413Y+000905
X+003159Y+000905
T03
X+000381Y+000445
X+000381Y+000945
X+000381Y+001445
X+000381Y+001968
X+000381Y+002468
X+000381Y+002968
X+000381Y+003492
X+000381Y+003992
X+000381Y+004492
X+000381Y+004992
X+000381Y+005747
X+000381Y+006247
X+000381Y+006747
X+000381Y+007271
X+000381Y+007771
X+000381Y+008271
X+000381Y+008795
X+000381Y+009295
X+000381Y+009795
X+000381Y+010295
X+007969Y+010287
X+007969Y+009787
X+007969Y+009287
X+007969Y+008763
X+007969Y+008263
X+007969Y+007763
X+007969Y+007239
X+007969Y+006739
X+007969Y+006239
X+007969Y+005739
X+007969Y+005001
X+007969Y+004501
X+007969Y+004001
X+007969Y+003477
X+007969Y+002977
X+007969Y+002477
X+007969Y+001953
X+007969Y+001453
X+007969Y+000953
X+007969Y+000453
T00
M30
