%TF.GenerationSoftware,Novarm,DipTrace,3.3.1.2*%
%TF.CreationDate,2019-04-15T21:39:31+01:00*%
%FSLAX35Y35*%
%MOMM*%
%TF.FileFunction,Soldermask,Top*%
%TF.Part,Single*%
%ADD42R,3.45X2.35*%
%ADD44R,1.15X2.35*%
%ADD46C,3.2*%
%ADD48R,0.8X2.2*%
%ADD50O,2.2X1.7*%
%ADD52C,2.2*%
%ADD54R,2.2X2.2*%
%ADD56R,5.75X6.35*%
%ADD58R,1.2X2.95*%
%ADD60R,1.25X0.85*%
%ADD62R,1.8X1.0*%
%ADD64R,1.4X1.4*%
%ADD66R,1.7X1.5*%
%ADD68R,1.5X1.7*%
G75*
G01*
%LPD*%
D68*
X4856760Y2142900D3*
X4666760D3*
D66*
X1444233Y5110973D3*
Y4920973D3*
X2619100Y4539773D3*
Y4729773D3*
D68*
X3888967Y4650887D3*
X3698967D3*
X4396433Y2142900D3*
X4206433D3*
X3920233D3*
X3730233D3*
X3460387D3*
X3270387D3*
X3015453D3*
X2825453D3*
X2555127D3*
X2365127D3*
X2094800D3*
X1904800D3*
X1634473D3*
X1444473D3*
X1968293Y5603287D3*
X1778293D3*
X2428620D3*
X2238620D3*
X2873073D3*
X2683073D3*
X3317527D3*
X3127527D3*
X3761980D3*
X3571980D3*
X4206433D3*
X4016433D3*
X4650887D3*
X4460887D3*
X5095340D3*
X4905340D3*
D64*
X4619140Y1365107D3*
Y1645107D3*
D62*
X4841367Y1333360D3*
Y1673360D3*
D60*
X904780Y5587413D3*
Y5397413D3*
X1134780Y5492413D3*
D64*
X4158813Y1365107D3*
Y1645107D3*
D62*
X4376433Y1337967D3*
Y1677967D3*
D64*
X3682613Y1365107D3*
Y1645107D3*
D62*
X3904840Y1333360D3*
Y1673360D3*
D64*
X3222287Y1365107D3*
Y1645107D3*
D62*
X3444513Y1333360D3*
Y1673360D3*
D64*
X2777833Y1365107D3*
Y1645107D3*
D62*
X3000060Y1333360D3*
Y1673360D3*
D64*
X2317507Y1365107D3*
Y1645107D3*
D62*
X2539733Y1333360D3*
Y1673360D3*
D64*
X1857180Y1365107D3*
Y1645107D3*
D62*
X2079407Y1333360D3*
Y1673360D3*
D64*
X1396853Y1365107D3*
Y1645107D3*
D62*
X1619080Y1333360D3*
Y1673360D3*
D64*
X1730193Y6381080D3*
Y6101080D3*
D62*
X1952420Y6412827D3*
Y6072827D3*
D64*
X2190520Y6381080D3*
Y6101080D3*
D62*
X2412747Y6412827D3*
Y6072827D3*
D64*
X2634973Y6381080D3*
Y6101080D3*
D62*
X2857200Y6412827D3*
Y6072827D3*
D64*
X3079427Y6381080D3*
Y6101080D3*
D62*
X3301653Y6412827D3*
Y6072827D3*
D64*
X3523880Y6381080D3*
Y6101080D3*
D62*
X3746107Y6412827D3*
Y6072827D3*
D64*
X3968333Y6381080D3*
Y6101080D3*
D62*
X4190560Y6412827D3*
Y6072827D3*
D64*
X4412787Y6381080D3*
Y6101080D3*
D62*
X4635013Y6412827D3*
Y6072827D3*
D64*
X4857240Y6381080D3*
Y6101080D3*
D62*
X5079467Y6412827D3*
Y6072827D3*
D58*
X682553Y5936627D3*
X1138553D3*
D56*
X910553Y6606627D3*
D68*
X4650887Y920653D3*
X4840887D3*
X4841367Y1127007D3*
X4651367D3*
X4666760Y1936547D3*
X4856760D3*
X1619080Y3031807D3*
X1809080D3*
X1619080Y3238160D3*
X1809080D3*
X1619080Y3444513D3*
X1809080D3*
D66*
X3634993Y2888947D3*
Y3078947D3*
D68*
X4190560Y920653D3*
X4380560D3*
X4380800Y1127247D3*
X4190800D3*
X4206913Y1936547D3*
X4396913D3*
X3714360Y920653D3*
X3904360D3*
X3904600Y1127247D3*
X3714600D3*
X3730713Y1936547D3*
X3920713D3*
X3254033Y920653D3*
X3444033D3*
X3444273Y1127247D3*
X3254273D3*
X3270387Y1936547D3*
X3460387D3*
X2809580Y920653D3*
X2999580D3*
X2999820Y1127247D3*
X2809820D3*
X2825933Y1936547D3*
X3015933D3*
X2349253Y920653D3*
X2539253D3*
D66*
X666680Y5396933D3*
Y5586933D3*
D68*
X2539493Y1127247D3*
X2349493D3*
X2365607Y1936547D3*
X2555607D3*
X1888927Y920653D3*
X2078927D3*
X2079167Y1127247D3*
X1889167D3*
X1905280Y1936547D3*
X2095280D3*
X1428600Y920653D3*
X1618600D3*
X1618840Y1127247D3*
X1428840D3*
X1444953Y1936547D3*
X1634953D3*
X1761940Y6825533D3*
X1951940D3*
X1952420Y6619180D3*
X1762420D3*
X1777813Y5809640D3*
X1967813D3*
X2222267Y6825533D3*
X2412267D3*
X2412747Y6619180D3*
X2222747D3*
X2238140Y5809640D3*
X2428140D3*
X2666720Y6825533D3*
X2856720D3*
X2857200Y6619180D3*
X2667200D3*
X2682593Y5809640D3*
X2872593D3*
X3111173Y6825533D3*
X3301173D3*
X3301653Y6619180D3*
X3111653D3*
X3127047Y5809640D3*
X3317047D3*
X3555627Y6825533D3*
X3745627D3*
X3746107Y6619180D3*
X3556107D3*
X3571500Y5809640D3*
X3761500D3*
X4000080Y6825533D3*
X4190080D3*
X4190560Y6619180D3*
X4000560D3*
X4015953Y5809640D3*
X4205953D3*
X4444533Y6825533D3*
X4634533D3*
X4635013Y6619180D3*
X4445013D3*
X4460407Y5809640D3*
X4650407D3*
X4888987Y6825533D3*
X5078987D3*
X5079467Y6619180D3*
X4889467D3*
X4904860Y5809640D3*
X5094860D3*
D54*
X2190520Y2920693D3*
D52*
X2444520D3*
X2698520D3*
Y3682693D3*
X2444520D3*
X2190570D3*
D50*
X851020Y4885777D3*
Y4631777D3*
Y4377777D3*
Y4123777D3*
Y3869777D3*
Y3615777D3*
Y3361777D3*
Y3107777D3*
Y2853777D3*
X1105020Y4885777D3*
Y4631777D3*
Y4377777D3*
Y4123777D3*
Y3869777D3*
Y3615777D3*
Y3361777D3*
Y3107777D3*
Y2853777D3*
D48*
X4906113Y4335257D3*
X4779113D3*
X4652113D3*
X4525113D3*
X4398113D3*
X4271113D3*
X4144113D3*
X4017113D3*
X3890113D3*
X3763113D3*
X3636113D3*
X3509113D3*
X3382113D3*
X3255113D3*
Y3395257D3*
X3382113D3*
X3509113D3*
X3636113D3*
X3763113D3*
X3890113D3*
X4017113D3*
X4144113D3*
X4271113D3*
X4398113D3*
X4525113D3*
X4652113D3*
X4779113D3*
X4906113D3*
D46*
X617000Y7700000D3*
X1117000D3*
X1617000D3*
X2117000D3*
X2617000D3*
X3117000D3*
X5125000Y47500D3*
X4625000D3*
X4125000D3*
X3625000D3*
X3125000D3*
X2625000D3*
X3617000Y7700000D3*
X4117000D3*
X4617000D3*
X5117000D3*
X2125000Y47500D3*
X1625000D3*
X1125000D3*
X625000D3*
D44*
X2238140Y5111213D3*
X2008140D3*
X1778140D3*
D42*
X2008140Y4531213D3*
M02*
