M48
METRIC,0000.00
T01C0.486
T02C1.0
T03C1.3
%
T01
X+000667Y+005270
X+001444Y+004762
X+002365Y+005111
X+002619Y+004857
X+002952Y+004429
X+003556Y+004651
X+003460Y+005810
X+003524Y+005968
X+003905Y+005810
X+003968Y+005968
X+004349Y+005810
X+004413Y+005968
X+004794Y+005810
X+004857Y+005968
X+003079Y+005984
X+003016Y+005810
X+002635Y+005984
X+002571Y+005810
X+002191Y+005984
X+002111Y+005810
X+001730Y+005984
X+001635Y+005810
X+001619Y+002873
X+001794Y+001937
X+001857Y+001762
X+002254Y+001937
X+002318Y+001762
X+002714Y+001937
X+002778Y+001762
X+003159Y+001937
X+003222Y+001762
X+003619Y+001937
X+003683Y+001762
X+004095Y+001937
X+004159Y+001762
X+004556Y+001937
X+004619Y+001762
X+002952Y+003016
X+001317Y+001937
X+001397Y+001762
T02
X+002191Y+002921
X+002445Y+002921
X+002699Y+002921
X+002699Y+003683
X+002445Y+003683
X+002191Y+003683
X+001105Y+003616
X+001105Y+003870
X+001105Y+004124
X+000851Y+004124
X+000851Y+003870
X+000851Y+003616
X+000851Y+003362
X+000851Y+003108
X+000851Y+002854
X+001105Y+002854
X+001105Y+003108
X+001105Y+003362
X+001105Y+004378
X+001105Y+004632
X+001105Y+004886
X+000851Y+004886
X+000851Y+004632
X+000851Y+004378
T03
X+000617Y+007700
X+001117Y+007700
X+001617Y+007700
X+002117Y+007700
X+002617Y+007700
X+003117Y+007700
X+003617Y+007700
X+004117Y+007700
X+004617Y+007700
X+005117Y+007700
X+005125Y+000047
X+004625Y+000047
X+004125Y+000047
X+003625Y+000047
X+003125Y+000047
X+002625Y+000047
X+002125Y+000047
X+001625Y+000047
X+001125Y+000047
X+000625Y+000047
T00
M30
